<svg xmlns="http://www.w3.org/2000/svg" viewBox="0 0 24.499 23.589"><path d="M18.694 4.343a1.388 1.388 0 1 0 1.441 1.387 1.415 1.415 0 0 0-1.441-1.387Zm-6.4 1.778a5.83 5.83 0 1 0 6.05 5.825 5.941 5.941 0 0 0-6.05-5.825Zm0 9.557a3.734 3.734 0 1 1 3.875-3.733 3.806 3.806 0 0 1-3.878 3.734ZM24.5 7.1A7.246 7.246 0 0 0 17.121 0h-9.74A7.246 7.246 0 0 0 0 7.105v9.379a7.246 7.246 0 0 0 7.379 7.1h9.74a7.246 7.246 0 0 0 7.381-7.1Zm-2.311 9.379a4.976 4.976 0 0 1-5.068 4.88h-9.74a4.977 4.977 0 0 1-5.068-4.88V7.1a4.976 4.976 0 0 1 5.068-4.88h9.74a4.977 4.977 0 0 1 5.068 4.88Z" fill="#fff"/></svg>