<svg xmlns="http://www.w3.org/2000/svg" viewBox="0 0 22.818 20.984"><g fill="#fff"><path data-name="Path 102" d="M22.818 12.87v7.766a.341.341 0 0 1-.105.246.368.368 0 0 1-.255.1H18.29a.368.368 0 0 1-.255-.1.341.341 0 0 1-.105-.246v-7.222c0-1.9-.706-3.2-2.474-3.2a2.662 2.662 0 0 0-2.505 1.72 3.1 3.1 0 0 0-.161 1.147v7.554a.355.355 0 0 1-.361.348H8.267a.367.367 0 0 1-.256-.1.34.34 0 0 1-.105-.246c.009-1.923.052-11.257.009-13.448a.338.338 0 0 1 .1-.249.366.366 0 0 1 .257-.1h4.158a.355.355 0 0 1 .361.348v1.658c-.01.016-.024.031-.033.046h.032v-.046a4.882 4.882 0 0 1 4.4-2.337c3.214 0 5.624 2.022 5.624 6.367ZM.681 20.984h4.162a.368.368 0 0 0 .255-.1.341.341 0 0 0 .105-.246V7.183a.341.341 0 0 0-.105-.246.368.368 0 0 0-.255-.1H.681a.368.368 0 0 0-.255.1.341.341 0 0 0-.105.246v13.453a.341.341 0 0 0 .105.246.368.368 0 0 0 .255.102Z"/><path data-name="Path 103" d="M5.231 2.518A2.617 2.617 0 1 1 2.616 0a2.568 2.568 0 0 1 2.615 2.518Z"/></g></svg>