<svg xmlns="http://www.w3.org/2000/svg" width="74.219" height="73.847" viewBox="0 0 74.219 73.847">
  <path id="Path_3488" data-name="Path 3488" d="M1420.4-3023.368c-.293-.007-.591-.018-.887-.032s-.586-.033-.878-.054-.589-.047-.881-.076-.583-.06-.877-.1-.586-.075-.871-.117-.58-.088-.87-.138-.579-.1-.868-.158-.576-.117-.859-.179-.577-.131-.861-.2-.572-.144-.854-.22-.568-.157-.853-.241-.561-.171-.839-.261-.562-.186-.831-.28-.558-.2-.836-.3-.551-.211-.819-.32-.546-.225-.811-.34-.542-.239-.8-.361-.535-.251-.795-.38-.53-.264-.789-.4-.521-.276-.778-.419-.512-.288-.767-.437-.507-.3-.753-.454-.5-.313-.745-.473-.515-.341-.761-.51-.5-.349-.746-.528-.495-.365-.735-.549-.486-.376-.718-.563-.473-.387-.706-.583-.463-.4-.691-.6-.455-.412-.676-.618-.441-.42-.66-.635-.436-.436-.641-.649-.423-.445-.628-.669-.409-.453-.609-.682-.4-.464-.592-.7-.386-.473-.575-.713-.376-.484-.554-.724-.364-.492-.541-.743-.349-.5-.517-.747-.337-.508-.5-.763-.324-.516-.482-.778-.311-.523-.464-.789-.3-.535-.443-.8-.285-.538-.425-.813-.271-.545-.4-.82-.259-.554-.382-.83-.245-.561-.362-.842-.23-.567-.338-.848-.217-.573-.319-.86-.2-.581-.3-.866-.187-.582-.275-.872-.171-.583-.253-.881-.157-.591-.23-.886-.143-.595-.207-.887-.128-.6-.187-.9c-.056-.288-.11-.581-.158-.87s-.1-.582-.137-.87-.081-.583-.117-.878-.067-.583-.094-.869-.054-.594-.074-.879-.04-.589-.053-.881-.024-.591-.031-.882-.01-.59-.01-.882,0-.585.012-.884.018-.589.032-.88.032-.59.054-.883.047-.585.075-.875.061-.584.1-.875.075-.583.117-.872a.644.644,0,0,1,.731-.543.644.644,0,0,1,.55.632.665.665,0,0,1-.007.1c-.041.279-.078.562-.113.842s-.066.564-.093.843-.052.565-.073.845-.039.569-.052.851-.024.567-.031.85-.011.574-.011.852,0,.569.01.851.016.567.03.85.031.569.051.851.044.562.071.848.058.56.092.84.072.569.113.846.085.561.132.841.1.561.152.839c.058.293.118.585.181.868s.13.572.2.857.146.572.222.854.161.573.245.851.173.563.265.842.187.556.286.834.2.556.308.829.214.547.327.818.23.544.349.812.241.536.367.8.257.532.388.791.272.528.41.785.282.516.427.771.3.514.447.762.309.5.466.75.319.5.482.737.329.483.5.721.347.483.522.718.353.465.536.7.369.464.554.688.38.452.571.672.391.443.588.658.4.434.607.646.407.416.618.625.425.414.636.613.431.4.652.6.445.392.667.58.453.379.68.563.457.364.692.545.471.354.71.528.48.344.72.51.485.328.734.492.48.308.72.456.482.3.726.438.494.286.74.422.5.275.751.405.506.26.76.386.509.248.768.366.514.235.776.348.518.221.781.328.526.209.79.309.541.2.807.293.529.182.8.27.541.171.81.251.552.16.823.233.549.146.824.213.554.132.832.194c.551.122,1.118.231,1.667.326.28.048.563.093.84.133s.559.078.841.113.568.066.846.093.569.052.851.073.567.038.848.052.572.024.854.031.562.011.845.011.576,0,.856-.01.563-.016.847-.031.565-.03.85-.05.561-.043.845-.071.569-.058.848-.092.566-.072.846-.113.557-.085.837-.131.564-.1.841-.154.579-.116.865-.179.574-.131.86-.2.573-.145.854-.222.571-.159.85-.244.563-.173.841-.264.563-.188.837-.286.553-.2.825-.306.551-.216.82-.328.545-.23.812-.348.538-.244.8-.37.531-.256.791-.388.523-.269.781-.407.523-.285.773-.428.508-.293.76-.446.507-.311.752-.466.494-.32.737-.483.489-.333.726-.5.476-.343.711-.519.474-.358.7-.539.458-.365.685-.552.452-.378.672-.571.444-.39.66-.589.429-.4.643-.6.423-.413.628-.62.414-.425.612-.636.4-.433.6-.651.388-.441.578-.665.383-.457.566-.684.365-.459.544-.692.355-.47.527-.708.344-.479.51-.722.332-.488.492-.733.309-.48.457-.719.3-.487.439-.729.284-.492.421-.739.271-.495.4-.745.264-.511.387-.762.249-.512.368-.77.236-.517.348-.776.223-.524.33-.786.21-.527.309-.79.2-.53.29-.8.187-.543.274-.812.169-.533.25-.805.158-.546.233-.82.146-.551.212-.825.132-.551.193-.827.119-.553.174-.833.105-.56.154-.84.092-.557.132-.836.08-.566.113-.845.066-.567.093-.847.052-.558.073-.845.039-.571.052-.85.024-.563.031-.848.011-.57.011-.851,0-.573-.01-.852-.016-.573-.031-.853-.03-.566-.05-.849-.044-.565-.072-.85-.056-.553-.091-.838-.072-.566-.113-.846-.085-.562-.132-.842-.1-.566-.153-.84c-.057-.292-.117-.583-.18-.866s-.131-.577-.2-.859-.145-.571-.222-.852-.159-.57-.244-.85-.173-.562-.265-.842-.188-.56-.287-.837-.2-.552-.307-.826-.217-.553-.328-.822-.229-.542-.347-.809-.241-.535-.366-.8-.256-.528-.388-.79-.271-.527-.409-.786-.285-.521-.428-.773-.3-.514-.448-.763-.309-.5-.465-.75-.319-.493-.482-.736-.332-.487-.5-.725-.343-.476-.52-.714-.354-.468-.535-.7-.369-.462-.555-.687-.38-.454-.571-.673-.391-.444-.589-.659-.4-.434-.606-.644-.408-.418-.618-.626a.642.642,0,0,1-.191-.454.643.643,0,0,1,.186-.457.646.646,0,0,1,.911-.005c.218.216.434.435.64.649s.422.444.628.67.409.452.61.682.4.462.591.7.387.474.575.713.374.482.555.724.365.495.538.74.35.5.519.751.337.508.5.762.325.516.482.777.312.524.464.79.3.531.445.8.287.541.425.814.272.547.4.819.258.553.38.828.245.559.361.839.23.565.341.852.216.572.318.856.2.58.3.869.188.582.275.872.173.586.253.88.157.59.23.884.143.592.208.89.128.6.186.9c.056.284.109.577.159.871s.1.583.137.871.082.585.117.877.068.589.094.868c.028.3.053.591.074.881s.039.59.053.88.024.588.031.885.01.586.01.883,0,.588-.012.883-.018.59-.032.878-.032.586-.054.881-.047.592-.075.876-.061.585-.1.877-.076.583-.118.876-.088.581-.138.867-.1.583-.159.869-.117.581-.179.864-.13.574-.2.857-.144.573-.22.855-.158.571-.242.851-.171.563-.258.834-.185.561-.284.842-.2.553-.3.825-.212.549-.321.82-.225.545-.341.813-.238.539-.361.806-.252.534-.382.8-.263.525-.4.789-.275.519-.416.773-.289.513-.437.765-.3.506-.455.756-.312.5-.474.745-.337.509-.509.759-.351.5-.529.749-.364.494-.547.735-.375.482-.564.717-.387.473-.586.709-.4.464-.6.688-.41.454-.618.675-.418.441-.634.659-.432.432-.652.644-.444.423-.665.625-.454.41-.684.61-.464.4-.7.592-.473.387-.709.572-.483.375-.729.558-.491.363-.737.536-.5.349-.752.52-.508.337-.764.5-.516.324-.779.483-.526.313-.787.462-.53.3-.8.444-.541.286-.81.422-.545.272-.82.4-.556.26-.834.384-.56.244-.841.361-.565.23-.85.34-.571.215-.856.318-.577.2-.868.3-.581.187-.871.275-.585.173-.881.253-.589.157-.886.231-.6.143-.892.208-.6.128-.9.186-.58.109-.872.158-.581.1-.867.137-.585.081-.878.116-.585.068-.878.1-.589.053-.876.074-.592.039-.882.053-.589.024-.878.031-.588.011-.887.011S1420.689-3023.361,1420.4-3023.368Zm.1-3.668c-.264-.006-.531-.016-.8-.029s-.526-.03-.789-.049-.53-.042-.791-.068-.526-.054-.788-.086-.527-.066-.785-.1-.522-.079-.782-.123-.52-.091-.781-.142-.519-.1-.775-.16-.519-.116-.774-.178-.514-.129-.769-.2-.51-.14-.765-.215-.506-.153-.755-.233-.5-.165-.748-.25-.5-.177-.75-.272-.494-.188-.735-.285-.49-.2-.729-.3-.487-.214-.724-.323a.638.638,0,0,1-.373-.586.631.631,0,0,1,.06-.262.646.646,0,0,1,.855-.312c.226.1.46.208.694.31s.465.2.7.292.47.186.707.275.485.178.721.26.476.163.718.24.483.153.725.224.492.142.736.208.492.13.738.189.495.118.744.173c.493.107,1,.207,1.495.29.251.042.5.082.753.119s.5.07.753.1.507.058.758.083.507.046.76.064.508.034.758.047.511.021.764.028.5.009.757.01.513,0,.765-.009.506-.014.759-.027.506-.027.761-.045.5-.039.755-.063.509-.052.76-.082.507-.064.756-.1.5-.075.751-.118.5-.088.752-.136.519-.1.775-.16.514-.116.77-.179.513-.129.765-.2.509-.142.76-.217.5-.154.752-.236.5-.167.748-.255.495-.179.74-.273.492-.192.733-.291.488-.205.726-.31.481-.216.719-.329.474-.228.707-.345.47-.24.7-.363.466-.253.692-.382.455-.261.681-.4.453-.276.673-.416.444-.285.661-.431.438-.3.652-.448.427-.3.637-.462.424-.319.63-.48.411-.325.614-.491.406-.338.6-.509.4-.347.59-.524.385-.354.574-.536a.647.647,0,0,1,.91.017.637.637,0,0,1,.179.44.634.634,0,0,1-.2.463c-.2.189-.4.377-.6.559s-.409.367-.614.544-.416.355-.626.529-.427.345-.639.512-.435.335-.655.5-.442.324-.663.481-.45.312-.678.465-.458.3-.688.448-.464.29-.7.431-.473.28-.709.413-.477.267-.72.4-.485.256-.728.378-.491.243-.737.358-.5.232-.749.342-.5.219-.756.322-.507.206-.762.3-.513.193-.77.284-.517.18-.779.266-.523.167-.784.245-.526.154-.79.226-.529.14-.8.205-.536.129-.8.186-.536.115-.806.167-.521.1-.784.142-.524.084-.78.122-.525.073-.787.1-.526.059-.79.085-.529.047-.787.066-.533.035-.793.047-.528.022-.789.028-.529.009-.8.009S1420.763-3027.03,1420.5-3027.037Zm-.671-3.7c-.231-.011-.466-.025-.7-.042s-.471-.037-.7-.06-.465-.048-.7-.076-.468-.06-.7-.094-.466-.071-.7-.11-.464-.082-.694-.128h-.006c-.228-.044-.457-.092-.684-.142s-.462-.1-.688-.159-.459-.115-.682-.177-.452-.125-.679-.193-.449-.136-.671-.208-.447-.148-.665-.223-.442-.157-.663-.241-.441-.169-.653-.255-.434-.179-.648-.272-.43-.19-.641-.287-.427-.2-.634-.3-.421-.211-.628-.319-.415-.221-.621-.335-.41-.229-.611-.347-.4-.241-.6-.364-.4-.25-.6-.378-.41-.272-.608-.407-.4-.281-.6-.421-.394-.29-.586-.437-.386-.3-.573-.45-.378-.309-.562-.464-.369-.316-.551-.478-.363-.328-.538-.492-.352-.335-.526-.506-.347-.346-.511-.517-.336-.354-.5-.532-.328-.362-.485-.544-.318-.369-.474-.556-.308-.377-.458-.568-.3-.386-.445-.579-.292-.4-.432-.592-.28-.4-.415-.6-.27-.406-.4-.612-.258-.411-.385-.62-.249-.417-.37-.63-.239-.426-.355-.639-.229-.43-.338-.647-.217-.434-.321-.653-.206-.441-.3-.661-.2-.446-.288-.671-.184-.451-.271-.676a.639.639,0,0,1-.043-.235.64.64,0,0,1,.411-.594.642.642,0,0,1,.831.368c.083.214.17.431.258.646s.182.43.275.641.191.422.291.631.2.42.307.626.213.415.323.618.223.409.338.61.235.405.355.6.245.4.368.593.255.394.384.586.262.384.4.574.274.38.413.566.281.37.425.553.292.366.439.544.3.357.451.531.308.348.465.52.317.342.478.508.321.329.488.493.335.326.5.483.341.315.515.471.35.309.526.456.357.3.537.445.364.288.548.43.372.28.56.417.379.271.571.4.384.26.581.389.38.244.57.362.384.234.577.346.39.226.584.333.4.217.594.32.4.206.6.305.4.194.606.289.407.185.613.274.413.176.619.259.413.165.625.245.425.156.634.23.422.145.636.213.427.136.641.2.436.126.649.185.434.114.653.167.437.105.657.154.437.093.654.135.448.084.67.123.444.073.667.105.443.062.666.089.45.052.67.074.447.042.671.058.449.03.67.041a.642.642,0,0,1,.611.639c0,.011,0,.022,0,.033a.641.641,0,0,1-.64.61Zm4.812-.182a.637.637,0,0,1-.513-.547.646.646,0,0,1,0-.081.636.636,0,0,1,.564-.625c.22-.027.445-.057.666-.088s.444-.066.662-.1.444-.077.662-.12.458-.091.683-.14.453-.1.679-.157.45-.114.673-.174.447-.124.668-.19.443-.135.662-.207.441-.147.658-.223.437-.158.651-.24.435-.169.645-.256.427-.179.638-.272.425-.191.633-.289.418-.2.624-.3.413-.211.616-.32.409-.22.61-.335.4-.229.6-.349.4-.243.593-.365.391-.25.584-.379a.644.644,0,0,1,.889.172.625.625,0,0,1,.109.355.635.635,0,0,1-.283.527c-.2.134-.407.267-.611.4s-.41.256-.62.382-.419.247-.627.365-.426.238-.638.351-.429.225-.644.333-.436.215-.652.317-.44.2-.662.3-.446.194-.668.285-.447.18-.675.267-.453.17-.68.25-.459.159-.689.234-.464.148-.694.216-.466.137-.7.2-.47.124-.7.181-.475.114-.71.165-.474.1-.714.147-.462.086-.693.124-.461.076-.692.109-.466.064-.7.092a.655.655,0,0,1-.078,0A.626.626,0,0,1,1424.645-3030.914Zm-21.2-1.387a.638.638,0,0,1-.228-.093c-.231-.152-.461-.307-.682-.459s-.45-.316-.669-.475-.444-.328-.659-.493-.434-.338-.644-.507-.425-.349-.632-.525-.413-.356-.618-.541-.409-.37-.6-.555-.4-.377-.59-.571-.389-.39-.574-.584-.378-.4-.562-.6-.367-.407-.545-.613-.356-.416-.531-.627-.347-.426-.516-.641-.335-.435-.5-.652-.327-.445-.485-.669-.315-.452-.464-.675-.3-.457-.449-.688-.292-.463-.434-.7-.279-.473-.415-.711-.269-.481-.4-.72-.256-.485-.38-.731-.243-.49-.361-.738-.231-.5-.341-.745-.219-.5-.324-.757-.206-.509-.3-.762-.194-.515-.285-.772-.182-.521-.266-.778-.167-.522-.246-.784-.154-.528-.226-.792-.141-.531-.207-.8-.128-.535-.186-.8-.114-.536-.167-.809c-.049-.257-.1-.52-.142-.782s-.085-.526-.122-.784-.073-.524-.1-.788-.06-.526-.085-.783-.048-.531-.067-.792-.035-.528-.048-.791-.022-.531-.028-.793-.009-.529-.009-.794,0-.525.011-.793.016-.533.029-.792.03-.53.049-.794.042-.526.068-.788.054-.524.086-.788.068-.523.105-.784.08-.525.124-.786.092-.522.142-.782.105-.522.161-.778.118-.519.179-.772.13-.516.2-.771.141-.509.215-.76.153-.506.235-.76.166-.5.252-.75.178-.5.27-.744.189-.5.288-.74.2-.492.305-.729.212-.483.323-.724.225-.479.34-.715.236-.472.359-.709.248-.468.374-.7.258-.461.392-.689.271-.456.409-.68.282-.45.424-.669.3-.459.457-.685.314-.451.474-.672.325-.444.49-.66.336-.435.506-.647.346-.426.525-.636c.071-.084.142-.168.215-.252a.639.639,0,0,1,.9-.065.642.642,0,0,1,.221.487.646.646,0,0,1-.156.422c-.07.08-.139.161-.207.241-.17.2-.34.408-.5.612s-.328.412-.486.621-.317.42-.472.634-.307.43-.454.646-.3.438-.44.658-.274.427-.407.643-.266.436-.393.655-.255.442-.376.661-.243.447-.36.671-.234.456-.345.681-.22.457-.327.686-.211.465-.311.7-.2.463-.292.7-.188.474-.277.711-.176.475-.259.716-.165.48-.242.72-.155.49-.226.73-.141.488-.206.731-.13.494-.191.741-.117.492-.172.741-.106.5-.156.748-.094.5-.137.752-.083.5-.119.755-.071.5-.1.754-.058.508-.083.756-.047.507-.065.758-.034.51-.047.763-.022.5-.028.76-.01.514-.01.762,0,.51.008.762.015.509.028.762.027.509.045.76.04.507.064.76.051.5.081.753.065.508.1.758.076.5.118.752.089.5.137.752.1.525.16.778.117.513.18.769.13.512.2.765.142.51.218.76.155.5.236.753.167.5.256.748.18.5.274.741.193.491.292.732.205.489.311.728.216.479.328.715.229.477.347.709.241.472.365.7.252.463.382.692.265.459.4.683.277.453.416.672.286.444.432.662.294.433.446.649.31.432.466.643.317.419.479.626.328.414.495.615.339.406.509.6.348.4.524.589.36.389.541.578.364.375.552.561.378.37.567.549.384.357.581.533.4.352.595.519.4.338.607.5.409.327.618.488.419.318.633.473.427.307.643.456.432.3.655.441a.645.645,0,0,1,.291.545.641.641,0,0,1-.1.346.639.639,0,0,1-.537.292A.626.626,0,0,1,1403.446-3032.3Zm17.846-2.065c-.2,0-.41,0-.614-.007s-.41-.012-.615-.022-.411-.022-.613-.037-.412-.032-.615-.052-.41-.041-.612-.067-.411-.051-.61-.08-.408-.061-.611-.1-.407-.071-.608-.11l-.005,0c-.2-.038-.4-.078-.6-.122s-.4-.09-.6-.138-.4-.1-.6-.152-.4-.109-.593-.166-.393-.118-.587-.18-.391-.127-.582-.193-.385-.135-.579-.207-.385-.146-.572-.22-.382-.155-.567-.235-.374-.163-.56-.248-.373-.172-.554-.261a.632.632,0,0,1-.359-.574.626.626,0,0,1,.066-.274.647.647,0,0,1,.86-.287c.173.084.349.167.526.248s.355.159.532.235.356.15.538.222.359.141.543.21.368.135.549.2.368.124.553.183.372.116.558.171.375.107.563.157.377.1.568.145.381.089.572.132.382.08.57.116h.005c.193.037.387.072.579.1s.388.063.58.091.385.053.581.076.388.045.581.063.389.035.583.05.388.026.582.035.391.016.584.021.39.008.582.008.392,0,.583-.007.389-.011.583-.02.389-.021.583-.034.384-.03.58-.049.389-.04.581-.062.388-.049.581-.077.384-.057.578-.089.389-.067.578-.1.4-.079.6-.122.4-.088.591-.136.392-.1.587-.15.388-.108.581-.165.385-.117.577-.179.384-.127.572-.193.379-.136.567-.207.376-.146.561-.221.372-.154.556-.235.371-.165.551-.249.363-.173.543-.262.359-.182.537-.277.356-.191.532-.29.35-.2.524-.3a.649.649,0,0,1,.882.215.624.624,0,0,1,.093.329.632.632,0,0,1-.31.541c-.184.109-.369.216-.552.319s-.373.207-.56.306-.378.2-.566.291-.382.187-.572.276-.384.177-.581.263-.391.168-.585.248-.393.157-.591.233-.4.149-.6.218-.4.139-.6.2-.407.129-.608.189-.409.119-.613.173-.411.109-.617.158-.416.1-.623.144-.419.088-.626.128-.4.075-.608.11-.409.066-.608.094-.409.056-.611.08-.408.046-.612.065-.412.037-.612.05-.41.027-.614.037-.411.017-.614.022c-.176,0-.355.006-.535.006Zm-.563-3.677c-.175,0-.352-.011-.526-.019s-.352-.02-.526-.032-.351-.028-.526-.045-.35-.036-.525-.058-.35-.045-.525-.07-.35-.054-.524-.084-.348-.061-.523-.1-.349-.07-.52-.108-.346-.079-.517-.121-.343-.086-.512-.132-.341-.094-.508-.144-.338-.1-.5-.156-.334-.11-.5-.168-.331-.118-.494-.179-.329-.127-.49-.192-.325-.134-.485-.2-.32-.142-.48-.216-.318-.149-.474-.227-.316-.157-.47-.239-.311-.165-.464-.249-.307-.174-.458-.262-.3-.18-.454-.274-.3-.188-.447-.283-.306-.2-.455-.306-.3-.21-.447-.317-.293-.216-.438-.327-.288-.223-.429-.337-.283-.23-.42-.347-.276-.238-.41-.358-.27-.244-.4-.368-.264-.251-.392-.377-.256-.257-.383-.388-.25-.265-.373-.4-.245-.271-.364-.407-.238-.276-.355-.418-.23-.282-.344-.427-.224-.289-.334-.437-.219-.3-.324-.445-.212-.3-.314-.455-.205-.309-.3-.463-.2-.312-.291-.468-.188-.315-.278-.473-.18-.32-.266-.479-.172-.325-.253-.485-.163-.326-.24-.491-.155-.33-.228-.5-.146-.334-.215-.5-.138-.339-.2-.507-.129-.339-.189-.51-.121-.344-.176-.516-.112-.347-.164-.52-.1-.35-.151-.525-.094-.354-.138-.529-.085-.356-.124-.534-.077-.36-.112-.537-.066-.347-.1-.522-.057-.349-.082-.522-.049-.349-.069-.523-.04-.351-.057-.525-.031-.35-.044-.525-.022-.351-.031-.525-.014-.352-.019-.527-.005-.351-.005-.526,0-.352.006-.525.011-.352.02-.526.02-.352.032-.526.028-.351.045-.526.036-.352.058-.525.045-.35.07-.525a.643.643,0,0,1,.729-.543.642.642,0,0,1,.549.631.635.635,0,0,1-.007.1c-.024.165-.046.33-.066.494s-.039.329-.054.494-.031.33-.043.494-.022.331-.03.5-.014.33-.019.495-.006.33-.006.5,0,.33.006.494.009.33.017.494.018.33.03.494.025.331.041.494.034.33.053.493.042.33.066.493.05.329.078.491.058.329.089.491.068.337.1.506.077.336.118.5.085.333.13.5.093.33.142.494.1.328.154.489.109.326.166.485.117.323.178.481.124.317.191.475.132.315.2.472.14.312.213.466.149.31.227.462.156.3.238.456.165.3.25.451.173.3.262.447.181.3.274.441.188.292.285.436.2.287.3.429.2.282.305.419.209.276.315.41.216.271.324.4.222.265.333.393.227.257.342.383.233.251.352.375.239.245.36.365.245.239.369.355.251.233.378.345.256.227.386.337.263.22.4.327.268.214.4.318.275.208.412.308.28.2.421.3.285.194.429.288.28.181.421.268.284.174.426.256.288.167.432.247.292.158.437.235.294.152.442.224.3.145.446.214.3.137.451.2.3.13.456.191.306.122.461.181.31.115.465.169.313.108.469.158.316.1.474.147.318.093.479.136.32.085.482.125.324.077.486.112c.323.072.658.137.984.193.164.028.329.055.493.078s.33.047.494.067.331.038.494.054.33.031.494.042.33.022.495.031.33.014.494.018.332.006.495.006.329,0,.495-.005.331-.01.493-.018a.643.643,0,0,1,.672.611c0,.011,0,.022,0,.033a.641.641,0,0,1-.611.639c-.173.009-.35.015-.526.019s-.353.006-.526.006S1420.9-3038.038,1420.728-3038.043Zm16.032-2.136a4.675,4.675,0,0,1-.9-.957,3.815,3.815,0,0,1-.689-1.816q-.133.108-.268.213c-.14.11-.283.219-.427.327s-.291.213-.437.317a.628.628,0,0,1-.485.1.631.631,0,0,1-.393-.253.624.624,0,0,1-.116-.363.626.626,0,0,1,.266-.511c.137-.1.275-.2.411-.3s.27-.2.4-.307.265-.21.394-.317.256-.215.384-.326.253-.221.375-.334l.08-.073a5.609,5.609,0,0,0-4.862.7l-.041-.059.293-.211a18.1,18.1,0,0,1-5.954,2.3,18.2,18.2,0,0,1-7-.005,18.192,18.192,0,0,1-6.485-2.629,18.115,18.115,0,0,1-5.158-5.091,18.093,18.093,0,0,1-2.841-7.036,18.224,18.224,0,0,1-.274-3.1,18.3,18.3,0,0,1,.488-4.229.645.645,0,0,1,.773-.479.644.644,0,0,1,.5.628.644.644,0,0,1-.017.145,16.964,16.964,0,0,0-.454,3.932,16.971,16.971,0,0,0,.254,2.878,16.83,16.83,0,0,0,2.559,6.417l-.008-.064.079.094a5.539,5.539,0,0,0,4.563,1.948,3.614,3.614,0,0,1,1.334-3.37,4.6,4.6,0,0,1,1.122-.686c1.991-.869,4.985-.763,8.431.294a.611.611,0,0,1,.425.484.591.591,0,0,1-.228.566,10.043,10.043,0,0,0-2.545,2.9l-.01.015a6.413,6.413,0,0,1-2.778,2.748,4.6,4.6,0,0,1-1.831.387,4.024,4.024,0,0,1-2.484-.831.316.316,0,0,1-.119-.292.353.353,0,0,1,.205-.274c2.211-.957,2.873-2.04,3.07-2.6a1.639,1.639,0,0,0,.092-.417,7.071,7.071,0,0,1-.771.716l0,0-.028.022c-.021.016-.041.031-.063.046a.382.382,0,0,0-.037.026c-.1.076-.2.149-.3.216-.058.039-.115.076-.176.112-.11.069-.228.135-.35.2l-.14.074a6.7,6.7,0,0,1-5.138.482l-.009,0a16.858,16.858,0,0,0,8.6,4.5,16.864,16.864,0,0,0,12.73-2.575,16.832,16.832,0,0,0,6.637-8.737l-.075.072.023-.114a5.453,5.453,0,0,0-1.333-4.739,3.651,3.651,0,0,1-3.469,1.075,4.693,4.693,0,0,1-1.24-.439c-1.926-1-3.721-3.375-5.053-6.7a.6.6,0,0,1,.112-.631.6.6,0,0,1,.585-.178,10.113,10.113,0,0,0,3.859.155l.022,0a6.465,6.465,0,0,1,3.889.43,4.2,4.2,0,0,1,2.358,3.611.318.318,0,0,1-.155.275.355.355,0,0,1-.342.012c-2.135-1.111-3.4-.944-3.958-.747a1.615,1.615,0,0,0-.383.19,6.983,6.983,0,0,1,1.042.148v0l.036.008a.7.7,0,0,1,.075.02l.044.012c.121.029.241.063.359.1.066.02.131.042.2.065.125.044.251.093.375.146l.136.059.013.006a6.888,6.888,0,0,1,3.636,3.739,17,17,0,0,0,.111-1.984,16.828,16.828,0,0,0-2.9-9.387.64.64,0,0,1-.109-.359.642.642,0,0,1,.285-.532.643.643,0,0,1,.892.174,18.136,18.136,0,0,1,2.777,6.693,18.2,18.2,0,0,1,.337,3.493,18.307,18.307,0,0,1-.342,3.5,18.183,18.183,0,0,1-2.631,6.482,18.058,18.058,0,0,1-3.424,3.889l.21-.151h.011a6.917,6.917,0,0,1,4.892,1.9l.013.011.11.1c.1.091.194.186.285.283.048.051.094.1.14.156.077.088.157.185.236.287.01.013.019.024.029.035s.034.041.049.061l.022.029,0,0a6.974,6.974,0,0,1,.556.894,1.616,1.616,0,0,0,.022-.427c-.042-.593-.393-1.813-2.277-3.318a.354.354,0,0,1-.126-.318.32.32,0,0,1,.192-.252,4.212,4.212,0,0,1,3.957.462c.081-.12.16-.241.238-.361.107-.166.212-.332.311-.5s.2-.335.3-.5.194-.338.287-.508.185-.34.275-.514.177-.35.262-.522.169-.353.249-.527.16-.357.236-.533.152-.359.224-.538.143-.363.211-.543.133-.364.2-.548.126-.372.185-.555.115-.368.171-.557.108-.376.158-.564.1-.378.145-.568.089-.379.131-.572.081-.384.119-.576.072-.387.105-.58.063-.388.091-.58.054-.39.077-.581.045-.392.064-.584.035-.385.049-.581.026-.392.036-.583.016-.389.022-.583.007-.391.007-.584,0-.392-.006-.584-.012-.391-.021-.583-.021-.391-.035-.583-.03-.387-.049-.582-.039-.386-.062-.581-.049-.389-.077-.581-.058-.389-.09-.58-.068-.386-.1-.578-.08-.4-.122-.6-.089-.4-.137-.592-.1-.392-.151-.587-.108-.39-.166-.582-.118-.388-.18-.578-.127-.383-.193-.572-.137-.38-.209-.567-.146-.377-.222-.562-.155-.372-.236-.556-.165-.367-.25-.549-.174-.363-.264-.543-.183-.359-.278-.538-.193-.359-.292-.533-.2-.354-.305-.525-.211-.348-.318-.518-.22-.344-.331-.511-.228-.337-.344-.5-.235-.33-.356-.494-.241-.322-.366-.482a.644.644,0,0,1-.136-.4.643.643,0,0,1,.243-.506.632.632,0,0,1,.894.108c.13.168.26.339.385.508s.253.347.373.519.244.351.362.528.235.358.348.537.225.362.334.544.216.366.321.554.207.371.308.56.2.38.292.567.188.383.277.573.179.386.263.578.169.391.249.586.158.394.234.592.149.4.22.6.14.4.205.6.128.405.189.608.119.409.175.614.109.413.159.618.1.414.143.623.089.417.13.627.076.406.11.608.065.406.094.61.057.407.081.611.046.41.066.611.036.411.05.614.027.408.037.613.016.41.022.615c0,.177.006.357.006.538q0,.039,0,.078c0,.2,0,.411-.007.615s-.013.41-.022.613-.022.41-.037.616-.033.412-.052.613-.042.407-.067.613-.052.408-.082.612-.061.407-.1.61-.071.407-.111.609-.081.407-.124.606-.091.4-.139.6-.1.4-.153.6-.109.4-.167.594-.12.4-.18.587-.128.39-.2.585-.137.388-.208.577-.146.384-.221.573-.155.379-.235.566-.165.375-.249.562-.173.37-.263.555-.182.365-.276.549-.192.365-.289.542-.2.359-.3.536-.208.354-.316.528-.215.347-.328.521-.225.344-.342.515a6.9,6.9,0,0,1,1.209,2.409c.112-.148.223-.3.332-.45.135-.187.27-.378.4-.571s.261-.385.388-.58.243-.38.359-.568.234-.385.347-.577.224-.39.331-.584.213-.392.317-.589.206-.4.3-.6.2-.405.288-.607.186-.409.274-.612.177-.414.259-.619.165-.416.243-.625.155-.419.229-.629.146-.428.214-.639.133-.423.2-.639.125-.432.183-.648.114-.434.168-.652.1-.436.152-.655.094-.44.137-.66.083-.442.121-.664.073-.443.1-.663.063-.446.09-.668.051-.448.073-.67a.64.64,0,0,1,.7-.576.64.64,0,0,1,.576.635.628.628,0,0,1,0,.066c-.022.231-.048.466-.077.7s-.059.467-.094.7-.07.464-.109.695-.083.465-.127.694-.093.462-.143.69-.1.46-.158.685-.114.456-.176.681-.125.455-.192.678-.136.451-.206.668-.147.447-.224.669-.157.441-.239.659-.168.438-.255.653-.178.433-.271.647-.188.428-.286.641-.2.424-.3.635-.208.418-.318.627-.22.416-.331.617-.229.41-.347.611-.239.4-.362.6-.248.4-.376.594-.269.408-.405.608-.279.4-.42.6-.288.393-.434.584-.293.38-.442.565a8.379,8.379,0,0,0,1.323,2.392.592.592,0,0,1,.071.608.616.616,0,0,1-.539.355q-.4.012-.781.013C1440.955-3038.235,1438.33-3038.917,1436.76-3040.178Zm-10.428,1.508a.63.63,0,0,1-.495-.464.611.611,0,0,1-.019-.156.627.627,0,0,1,.482-.6c.165-.04.33-.082.492-.126s.327-.09.488-.138.325-.1.484-.15.32-.106.48-.161.318-.115.474-.175.315-.121.47-.184.313-.131.465-.2.31-.138.462-.209.3-.145.456-.22a.64.64,0,0,1,.853.276.614.614,0,0,1,.068.285.626.626,0,0,1-.349.556c-.16.079-.324.158-.484.234s-.325.149-.49.221-.329.141-.495.21-.334.133-.5.2-.336.126-.5.184-.341.117-.51.172-.342.109-.514.16-.346.1-.518.147-.349.091-.523.133a.645.645,0,0,1-.154.019A.627.627,0,0,1,1426.332-3038.671Zm-20.4-.86a.633.633,0,0,1-.266-.12c-.167-.129-.335-.261-.5-.392s-.328-.27-.488-.405-.32-.276-.478-.418-.315-.285-.469-.429-.306-.292-.456-.441-.3-.3-.445-.452-.292-.308-.435-.464-.284-.315-.422-.474-.276-.322-.411-.485-.27-.331-.4-.5-.262-.338-.387-.507-.255-.346-.376-.518-.245-.351-.363-.527-.236-.356-.35-.536-.226-.359-.336-.543-.217-.364-.323-.551-.208-.371-.309-.558-.2-.377-.293-.565-.188-.379-.28-.572-.179-.385-.264-.577-.17-.389-.25-.584-.159-.392-.236-.59-.149-.4-.221-.595-.14-.4-.205-.6-.13-.4-.19-.606-.12-.407-.176-.611-.11-.412-.16-.617a.641.641,0,0,1-.019-.16.64.64,0,0,1,.487-.615.638.638,0,0,1,.773.468c.048.2.1.392.152.586s.109.389.167.581.119.386.18.575.128.383.2.572.138.379.21.565.147.376.223.56.157.373.237.554.166.367.251.548.176.365.266.542.185.359.279.537.194.356.293.53.2.354.306.524.212.347.32.516.22.342.333.51.229.336.346.5.236.33.357.492.242.321.367.481.252.316.381.472.258.31.39.461.266.3.4.45.274.3.412.441.28.287.422.428.289.282.434.419.294.273.444.408.3.267.454.4.307.258.464.385.315.251.474.373a.64.64,0,0,1,.251.517.641.641,0,0,1-.131.382.637.637,0,0,1-.507.251A.622.622,0,0,1,1405.928-3039.531Zm40.954-.184a.63.63,0,0,1-.265-.12.645.645,0,0,1-.25-.518.646.646,0,0,1,.131-.384c.158-.208.316-.42.469-.633s.3-.427.453-.646.293-.437.437-.657.274-.428.406-.643.263-.434.39-.652.254-.441.374-.662.24-.442.357-.667.233-.456.343-.68.22-.459.326-.688.21-.463.309-.695.2-.469.292-.7.186-.473.275-.708.176-.477.257-.713.166-.485.242-.725.15-.477.222-.721.14-.488.207-.734.129-.49.189-.738.116-.492.171-.741.105-.5.154-.747.094-.5.136-.751.082-.5.119-.75.07-.5.1-.756.058-.508.082-.758.046-.5.065-.756.033-.51.046-.76.022-.5.028-.759.009-.509.01-.761,0-.511-.009-.76-.015-.515-.027-.763-.027-.508-.045-.759-.04-.5-.063-.76-.051-.5-.081-.751-.064-.5-.1-.756-.076-.5-.118-.752-.088-.505-.136-.752a.651.651,0,0,1-.012-.129.641.641,0,0,1,.516-.624.637.637,0,0,1,.748.508c.05.256.1.519.141.782s.085.524.122.783.072.526.1.787.06.527.085.781.048.531.066.791.034.527.048.789.022.526.027.794.01.527.01.792,0,.53-.011.793-.016.531-.029.789-.029.527-.048.791-.042.531-.068.787-.054.525-.086.788-.067.527-.1.787-.08.523-.123.78-.092.523-.142.781-.1.523-.16.777-.116.519-.178.771-.129.517-.2.769-.141.513-.215.764-.153.506-.231.75-.165.5-.252.754-.175.5-.268.743-.187.491-.286.735-.2.488-.3.731-.211.483-.32.723-.224.48-.339.716-.234.471-.357.708-.247.468-.372.695-.256.46-.389.688-.269.456-.406.679-.28.448-.422.669-.3.459-.454.683-.314.453-.472.671-.323.443-.488.66a.636.636,0,0,1-.506.251A.633.633,0,0,1,1446.882-3039.714Zm-7.563-8.433a.644.644,0,0,1-.213-.085.645.645,0,0,1-.3-.552.647.647,0,0,1,.1-.332c.086-.141.172-.284.255-.427s.164-.287.243-.432.157-.291.232-.437.15-.293.222-.442.142-.3.211-.447.136-.3.2-.452.129-.3.19-.456.121-.306.178-.46.113-.311.167-.466.106-.312.157-.469.1-.317.145-.475.092-.319.134-.478.085-.322.123-.482.077-.324.112-.487.069-.328.1-.49.061-.327.089-.493.053-.329.077-.493.045-.329.066-.494.038-.329.053-.494.03-.33.042-.495.022-.33.031-.5.014-.33.018-.494.006-.332.006-.5,0-.331-.005-.495-.01-.33-.018-.494-.017-.33-.029-.494-.025-.331-.041-.494-.034-.329-.053-.493-.041-.329-.066-.492-.049-.328-.076-.492-.058-.329-.089-.491-.068-.338-.1-.506-.076-.336-.116-.5-.084-.333-.128-.5-.092-.329-.141-.493-.1-.329-.152-.49-.108-.325-.165-.485-.115-.322-.176-.48-.124-.321-.189-.476-.131-.317-.2-.472-.139-.312-.211-.466-.148-.31-.224-.462-.155-.3-.235-.456-.164-.3-.248-.452-.171-.3-.258-.447-.18-.3-.271-.441-.187-.292-.282-.436-.194-.288-.293-.428-.2-.283-.3-.42-.206-.275-.311-.41a.644.644,0,0,1-.136-.4.643.643,0,0,1,.242-.505.63.63,0,0,1,.892.107c.112.144.222.291.33.437s.215.3.32.446.209.3.31.455.2.307.3.462.193.311.287.468.185.316.275.474.177.319.263.479.169.325.25.485.16.327.238.49.152.331.225.5.143.333.212.5.136.337.2.506.127.341.187.511.119.345.175.516.111.347.162.52.1.351.149.526.093.353.136.529.085.354.123.533.076.359.11.538.065.347.094.521.056.349.081.523.049.349.069.523.04.35.056.524.031.35.044.526.022.35.031.525.014.352.018.526.006.351.006.526,0,.35-.006.526-.011.352-.02.526-.019.351-.031.526-.028.351-.044.526-.036.351-.058.525-.044.351-.069.525-.053.35-.082.524-.062.351-.094.523-.069.347-.107.52-.077.346-.119.517-.085.343-.131.513-.093.339-.142.508-.1.337-.155.5-.109.334-.166.5-.117.332-.178.5-.125.329-.189.49-.133.325-.2.485-.14.321-.212.48-.148.318-.225.474-.156.316-.235.47-.164.311-.248.464-.171.307-.258.458-.178.3-.27.454a.635.635,0,0,1-.541.3A.628.628,0,0,1,1439.32-3048.147Zm-46.12-5.041a.638.638,0,0,1-.5-.492c-.051-.233-.1-.474-.148-.717s-.086-.463-.125-.694-.076-.465-.108-.7-.064-.464-.092-.7-.053-.468-.075-.7-.042-.469-.058-.7-.031-.468-.042-.7-.019-.468-.024-.7-.008-.47-.008-.7,0-.468.009-.7.014-.472.025-.7.026-.469.042-.7.037-.466.06-.7.047-.464.076-.7.058-.465.092-.7.071-.468.11-.7.08-.462.125-.695.093-.465.142-.69.1-.458.158-.686.113-.456.175-.683.124-.453.189-.676.136-.451.207-.672.145-.445.22-.665.157-.445.238-.661.167-.438.254-.655.178-.436.268-.646.186-.428.284-.642.2-.424.3-.634.207-.419.315-.628.219-.415.329-.618.227-.408.345-.611.238-.406.359-.6a.631.631,0,0,1,.874-.208.642.642,0,0,1,.3.552.646.646,0,0,1-.1.332c-.116.19-.231.384-.344.578s-.223.391-.329.584-.212.393-.314.591-.205.4-.3.6-.194.4-.286.606-.184.409-.272.613-.173.409-.256.618-.165.417-.243.625-.153.418-.227.631-.144.426-.211.636-.134.427-.2.644-.123.429-.181.645-.114.438-.167.653-.1.439-.151.656-.093.438-.136.661-.084.446-.121.664-.072.443-.1.667-.061.446-.087.666-.052.449-.073.668-.041.45-.057.67-.03.449-.041.672-.019.445-.024.67-.009.451-.009.671,0,.449.007.672.013.449.023.671.024.449.041.67.034.447.056.67.044.442.071.665.056.449.087.668.067.444.1.665.077.444.12.664.092.463.14.685a.651.651,0,0,1,.015.145.641.641,0,0,1-.5.621.622.622,0,0,1-.138.015A.618.618,0,0,1,1393.2-3053.188Zm3.1-3.792a.628.628,0,0,1-.493-.565c-.019-.2-.035-.407-.05-.609s-.026-.406-.035-.609-.016-.407-.021-.61-.007-.407-.007-.611,0-.405.008-.61.013-.409.022-.61.022-.408.036-.61.031-.406.05-.609.041-.407.064-.608.05-.405.078-.608.059-.405.093-.606.069-.4.107-.6.078-.405.121-.6a.614.614,0,0,1,.717-.489l.014,0a.634.634,0,0,1,.482.616.66.66,0,0,1-.014.144c-.04.188-.078.381-.114.573s-.07.383-.1.574-.061.385-.088.577-.051.386-.074.577-.043.386-.061.577-.034.388-.048.58-.025.387-.034.58-.016.385-.021.579-.007.39-.007.581,0,.389.006.58.011.388.02.58.02.387.033.578.029.387.047.579c0,.022,0,.044,0,.065a.629.629,0,0,1-.556.631.536.536,0,0,1-.059,0A.588.588,0,0,1,1396.3-3056.98Zm53.437-4.46a.638.638,0,0,1-.508-.582c-.015-.221-.034-.445-.056-.669s-.045-.441-.071-.663-.056-.445-.087-.666-.067-.443-.1-.663-.076-.444-.119-.663-.092-.458-.14-.682-.1-.455-.157-.678-.113-.449-.173-.672-.124-.448-.19-.669-.134-.443-.205-.662-.147-.441-.223-.658-.157-.437-.238-.651-.168-.433-.256-.645-.178-.427-.27-.637-.187-.42-.285-.629-.2-.417-.3-.624-.211-.415-.318-.618a.644.644,0,0,1-.076-.305.64.64,0,0,1,.333-.561.628.628,0,0,1,.856.261c.113.212.225.43.333.646s.214.436.316.652.2.441.3.658.192.444.283.667.181.449.267.675.169.454.249.681.158.458.233.688.147.462.215.692.135.466.2.7.124.47.182.7.112.471.163.708.1.474.147.714.086.462.125.693.075.464.107.694.065.465.092.7.053.466.075.694.041.467.059.7c0,.017,0,.033,0,.049a.638.638,0,0,1-.587.636h-.043A.619.619,0,0,1,1449.734-3061.44Zm-51.916-6.788a.635.635,0,0,1-.1-.029.636.636,0,0,1-.405-.6.634.634,0,0,1,.041-.217c.07-.19.144-.38.219-.565s.153-.375.231-.558.161-.369.246-.552.17-.367.257-.546.179-.362.272-.542.189-.358.285-.534.2-.354.3-.527a.622.622,0,0,1,.857-.226.635.635,0,0,1,.31.552.637.637,0,0,1-.086.314c-.1.166-.191.334-.283.5s-.183.338-.27.508-.176.343-.258.514-.166.345-.245.519-.158.351-.233.526-.148.351-.22.529-.141.357-.208.536a.626.626,0,0,1-.586.41A.624.624,0,0,1,1397.819-3068.228Zm54.038-1.245a.641.641,0,0,1-.486-.429c-.082-.25-.167-.5-.256-.746s-.179-.5-.272-.737-.193-.492-.292-.733-.2-.483-.31-.722-.214-.476-.326-.713-.228-.472-.346-.706-.24-.469-.365-.7-.253-.464-.382-.69-.265-.459-.4-.681-.275-.45-.414-.67-.285-.442-.431-.659-.3-.436-.447-.649-.305-.426-.463-.637-.316-.418-.477-.625-.329-.414-.5-.613-.337-.4-.508-.6-.349-.4-.523-.587-.359-.387-.54-.575-.363-.374-.55-.559-.375-.367-.565-.546-.384-.356-.58-.531-.4-.35-.593-.517a.64.64,0,0,1-.226-.483.641.641,0,0,1,.152-.421.638.638,0,0,1,.9-.074c.205.175.413.355.617.539s.406.368.6.553.4.377.589.569.387.388.572.581.376.4.562.6.365.405.545.611.355.414.528.625.345.423.515.638.335.433.5.65.327.444.482.663.312.448.464.675.3.456.448.685.291.463.431.7.279.47.415.708.267.477.4.718.256.486.379.729.243.49.359.734.231.5.34.742.219.5.322.751.206.508.3.762.193.511.284.768.181.517.266.777a.642.642,0,0,1,.032.206.641.641,0,0,1-.44.6.646.646,0,0,1-.2.032A.637.637,0,0,1,1451.857-3069.473Zm-50.128-5.6a.616.616,0,0,1-.268-.125.621.621,0,0,1-.23-.491.617.617,0,0,1,.137-.381c.126-.157.258-.317.391-.474s.266-.31.4-.462a.615.615,0,0,1,.872-.05.617.617,0,0,1,.207.456.617.617,0,0,1-.156.418c-.13.146-.258.293-.382.439s-.251.3-.372.45a.614.614,0,0,1-.481.231A.622.622,0,0,1,1401.728-3075.071Zm33.219-.573a.62.62,0,0,1-.284-.136c-.126-.106-.256-.213-.385-.317s-.263-.208-.393-.308-.267-.2-.4-.3-.273-.194-.41-.289a.621.621,0,0,1-.271-.519.618.618,0,0,1,.11-.347.626.626,0,0,1,.87-.159c.146.1.292.2.436.306s.287.21.427.317.28.216.418.328.275.223.409.337a.62.62,0,0,1,.221.469.618.618,0,0,1-.148.409.626.626,0,0,1-.477.22A.63.63,0,0,1,1434.947-3075.644Zm9.559-.329a.635.635,0,0,1-.4-.257c-.133-.187-.271-.377-.41-.562s-.278-.367-.422-.55-.289-.363-.435-.54-.3-.356-.449-.528-.308-.349-.461-.517-.315-.339-.475-.506-.32-.328-.485-.49-.329-.322-.5-.481-.337-.313-.51-.467-.347-.306-.522-.455-.355-.3-.533-.44-.362-.288-.544-.427-.371-.28-.557-.416-.374-.267-.565-.4a.637.637,0,0,1-.276-.532.636.636,0,0,1,.113-.356.637.637,0,0,1,.887-.163c.2.138.4.279.591.418s.391.287.583.434.382.3.569.447.375.306.558.461.367.316.546.476.36.326.535.489.352.335.522.5.343.343.507.514.335.352.5.529.323.356.482.54.315.366.469.553.307.374.456.564.3.384.441.575.288.391.427.588a.635.635,0,0,1,.118.37.636.636,0,0,1-.269.52.635.635,0,0,1-.37.118A.658.658,0,0,1,1444.506-3075.972Zm-6.732-2.061a.626.626,0,0,1-.3-.149c-.149-.132-.3-.264-.454-.393s-.307-.256-.464-.382-.313-.248-.473-.37-.324-.243-.484-.359-.326-.232-.493-.346-.332-.225-.5-.335-.328-.211-.492-.312-.332-.2-.5-.3-.336-.194-.5-.287-.344-.186-.513-.275-.346-.177-.518-.262-.347-.167-.524-.249-.351-.159-.529-.237-.355-.15-.535-.223-.36-.143-.54-.21-.366-.135-.546-.2-.367-.126-.551-.185a.637.637,0,0,1-.442-.612.631.631,0,0,1,.031-.189.641.641,0,0,1,.806-.409c.193.063.388.128.579.194s.383.136.575.208.381.146.569.222.379.156.563.235.376.165.558.249.371.174.551.262.365.182.546.275.359.19.54.29.357.2.532.3.353.209.525.315.349.218.519.329.355.234.528.352.35.244.519.365.34.249.509.378.337.26.5.391.328.266.489.4.321.274.478.414a.633.633,0,0,1,.214.469.63.63,0,0,1-.163.428.637.637,0,0,1-.476.213A.644.644,0,0,1,1437.774-3078.033Zm-8.127-.905a.629.629,0,0,1-.13-.04c-.149-.063-.3-.126-.447-.185s-.3-.117-.451-.174-.3-.111-.455-.163-.307-.1-.461-.152-.31-.1-.464-.141a.62.62,0,0,1-.45-.6.607.607,0,0,1,.026-.169.631.631,0,0,1,.782-.417c.165.049.331.1.494.15s.327.106.489.162.324.113.484.173.322.122.48.184.318.129.474.2a.619.619,0,0,1,.38.573.61.61,0,0,1-.052.24.629.629,0,0,1-.577.372A.631.631,0,0,1,1429.647-3078.939Zm-12.524-1.374a.625.625,0,0,1-.5-.483.59.59,0,0,1-.012-.123.619.619,0,0,1,.516-.593c.172-.031.346-.062.517-.09s.346-.054.518-.078.346-.046.519-.066.347-.039.519-.055.347-.03.52-.041.348-.022.52-.031.349-.013.522-.017.348-.006.521-.005.348,0,.521.006.348.01.522.018.347.019.52.031.348.027.522.043a.621.621,0,0,1,.574.605.567.567,0,0,1,0,.063.63.63,0,0,1-.7.548c-.163-.015-.328-.029-.49-.04s-.328-.021-.49-.029-.328-.014-.49-.017-.328-.006-.491-.006-.328,0-.49.005-.328.009-.49.017-.328.017-.49.028-.328.024-.49.04-.326.031-.49.051-.327.041-.488.063-.327.047-.488.073-.325.055-.488.086a.667.667,0,0,1-.122.011A.675.675,0,0,1,1417.124-3080.313Zm7.068-3.873c-.188-.021-.38-.042-.569-.06s-.383-.033-.571-.047-.38-.025-.57-.033-.383-.016-.572-.021a.659.659,0,0,1-.106-.011.612.612,0,0,1-.508-.6s0-.009,0-.014a.619.619,0,0,1,.645-.591c.2,0,.4.012.6.022s.4.021.6.035.4.031.6.049.4.041.6.064a.615.615,0,0,1,.553.6.569.569,0,0,1,0,.077.621.621,0,0,1-.623.532A.654.654,0,0,1,1424.192-3084.186Zm9.62-.906a.671.671,0,0,1-.16-.054c-.2-.094-.4-.189-.6-.282s-.4-.181-.607-.268-.408-.171-.613-.254-.413-.162-.619-.239-.42-.154-.626-.225-.419-.142-.629-.21-.427-.133-.638-.194-.423-.122-.638-.179a.628.628,0,0,1-.47-.6.62.62,0,0,1,.022-.172.636.636,0,0,1,.78-.441c.225.06.449.123.668.187s.445.133.667.2.441.143.658.219.437.153.655.235.435.165.648.25.431.175.642.265.427.185.634.281.421.2.626.3a.627.627,0,0,1,.355.569.619.619,0,0,1-.065.271.639.639,0,0,1-.571.35A.634.634,0,0,1,1433.812-3085.092Zm5.009-1.362a.636.636,0,0,1-.225-.09c-.21-.136-.423-.271-.635-.4s-.429-.26-.644-.385-.432-.248-.652-.369-.443-.24-.663-.354-.447-.229-.671-.338-.445-.214-.673-.319a.628.628,0,0,1-.368-.577.624.624,0,0,1,.059-.258.637.637,0,0,1,.842-.306c.237.109.473.221.7.332s.468.232.7.352.463.243.69.368.457.255.679.384.448.264.67.4.444.276.662.418a.628.628,0,0,1,.287.532.626.626,0,0,1-.1.338.636.636,0,0,1-.532.284A.639.639,0,0,1,1438.821-3086.454Zm4.92-.957a.628.628,0,0,1-.275-.128c-.225-.18-.454-.36-.682-.534s-.468-.351-.7-.517-.469-.335-.707-.5-.478-.323-.721-.48-.473-.3-.708-.448a.63.63,0,0,1-.3-.542.626.626,0,0,1,.095-.326.636.636,0,0,1,.872-.2c.243.15.49.307.734.465s.5.331.747.5.494.344.734.517.483.354.724.537.474.365.707.552a.629.629,0,0,1,.236.484.624.624,0,0,1-.14.4.63.63,0,0,1-.493.235A.639.639,0,0,1,1443.741-3087.41Zm-18.428-.328c-.217-.031-.435-.059-.648-.085s-.432-.049-.647-.069a.554.554,0,0,1-.059-.008.611.611,0,0,1-.5-.6q0-.029,0-.059a.619.619,0,0,1,.681-.543c.225.021.453.046.677.073s.451.056.678.088a.612.612,0,0,1,.533.594.59.59,0,0,1-.006.092.619.619,0,0,1-.616.519A.642.642,0,0,1,1425.313-3087.738Zm-4.808-.3a.606.606,0,0,1-.5-.576c0-.005,0-.01,0-.016a.608.608,0,0,1,.6-.6c.226,0,.453-.007.674-.007a.609.609,0,0,1,.616.6.61.61,0,0,1-.617.6c-.212,0-.427,0-.644.007h-.013A.649.649,0,0,1,1420.505-3088.038Zm11.364-1.851a.628.628,0,0,1-.086-.023c-.227-.078-.458-.155-.689-.229a.609.609,0,0,1-.427-.585.594.594,0,0,1,.03-.18.618.618,0,0,1,.777-.392c.24.076.482.157.717.239a.608.608,0,0,1,.413.58.6.6,0,0,1-.035.194.616.616,0,0,1-.582.407A.619.619,0,0,1,1431.869-3089.889Zm5.206-1.788a.6.6,0,0,1-.155-.051c-.238-.116-.482-.232-.73-.345a.61.61,0,0,1-.358-.56.6.6,0,0,1,.057-.251.62.62,0,0,1,.819-.3c.256.118.511.239.757.358a.61.61,0,0,1,.345.553.6.6,0,0,1-.064.264.617.617,0,0,1-.553.341A.607.607,0,0,1,1437.075-3091.677Zm-4.019-1.676a.64.64,0,0,1-.089-.024c-.261-.089-.528-.177-.794-.262s-.542-.168-.81-.246-.533-.152-.8-.224-.545-.142-.818-.208-.545-.128-.82-.187c-.54-.117-1.1-.224-1.655-.318-.274-.046-.554-.089-.833-.129a.631.631,0,0,1-.545-.614.6.6,0,0,1,.007-.1.636.636,0,0,1,.723-.529c.289.042.579.087.863.135.576.1,1.156.207,1.714.328.285.061.571.127.849.194s.569.14.849.215.563.153.834.232.56.167.839.256.553.178.823.272a.626.626,0,0,1,.427.6.615.615,0,0,1-.036.2.638.638,0,0,1-.6.419A.64.64,0,0,1,1433.057-3093.353Z" transform="translate(-1384.183 3096.704)" fill="#fff" stroke="rgba(0,0,0,0)" stroke-width="1"/>
</svg>
