<svg xmlns="http://www.w3.org/2000/svg" xmlns:xlink="http://www.w3.org/1999/xlink" width="355.5" height="249.433" viewBox="0 0 355.5 249.433">
  <defs>
    <clipPath id="clip-path">
      <path id="Path_4654" data-name="Path 4654" d="M0,40.132H355.5V-209.3H0Z" transform="translate(0 209.301)" fill="none"/>
    </clipPath>
  </defs>
  <g id="Group_929" data-name="Group 929" transform="translate(0 209.301)">
    <g id="Group_928" data-name="Group 928" transform="translate(0 -209.301)" clip-path="url(#clip-path)">
      <g id="Group_878" data-name="Group 878" transform="translate(251.069 76.333)">
        <path id="Path_4604" data-name="Path 4604" d="M.347,0A2.16,2.16,0,0,0-1.812,2.158V36.764a2.159,2.159,0,1,0,4.318,0V2.158A2.16,2.16,0,0,0,.347,0" transform="translate(1.812)" fill="#004728"/>
      </g>
      <g id="Group_879" data-name="Group 879" transform="translate(288.613 123.539)">
        <path id="Path_4605" data-name="Path 4605" d="M.347,0A2.161,2.161,0,0,0-1.811,2.161V53.585A2.161,2.161,0,0,0,.347,55.746a2.163,2.163,0,0,0,2.161-2.161V2.161A2.163,2.163,0,0,0,.347,0" transform="translate(1.811)" fill="#004728"/>
      </g>
      <g id="Group_880" data-name="Group 880" transform="translate(276.096 135.008)">
        <path id="Path_4606" data-name="Path 4606" d="M.348,0A2.161,2.161,0,0,0-1.813,2.158v45.11a2.16,2.16,0,0,0,4.32,0V2.158A2.16,2.16,0,0,0,.348,0" transform="translate(1.813)" fill="#004728"/>
      </g>
      <g id="Group_881" data-name="Group 881" transform="translate(263.581 139.274)">
        <path id="Path_4607" data-name="Path 4607" d="M.347,0A2.16,2.16,0,0,0-1.812,2.158v56.59a2.159,2.159,0,0,0,4.319,0V2.158A2.16,2.16,0,0,0,.347,0" transform="translate(1.812)" fill="#004728"/>
      </g>
      <g id="Group_882" data-name="Group 882" transform="translate(251.069 135.481)">
        <path id="Path_4608" data-name="Path 4608" d="M.347,0A2.16,2.16,0,0,0-1.812,2.158V60.1a2.159,2.159,0,0,0,4.318,0V2.158A2.16,2.16,0,0,0,.347,0" transform="translate(1.812)" fill="#004728"/>
      </g>
      <g id="Group_883" data-name="Group 883" transform="translate(201.011 103.66)">
        <path id="Path_4609" data-name="Path 4609" d="M.347,0A2.162,2.162,0,0,0-1.812,2.161V43.309a2.16,2.16,0,0,0,4.32,0V2.161A2.163,2.163,0,0,0,.347,0" transform="translate(1.812)" fill="#004728"/>
      </g>
      <g id="Group_884" data-name="Group 884" transform="translate(213.524 107.173)">
        <path id="Path_4610" data-name="Path 4610" d="M.348,0A2.162,2.162,0,0,0-1.813,2.159V39.8a2.16,2.16,0,0,0,4.32,0V2.159A2.161,2.161,0,0,0,.348,0" transform="translate(1.813)" fill="#004728"/>
      </g>
      <g id="Group_885" data-name="Group 885" transform="translate(213.524 169.933)">
        <path id="Path_4611" data-name="Path 4611" d="M.348,0A2.161,2.161,0,0,0-1.813,2.158V21.841a2.16,2.16,0,0,0,4.32,0V2.158A2.16,2.16,0,0,0,.348,0" transform="translate(1.813)" fill="#004728"/>
      </g>
      <g id="Group_886" data-name="Group 886" transform="translate(226.041 107.172)">
        <path id="Path_4612" data-name="Path 4612" d="M.347,9.138A2.16,2.16,0,0,0,2.507,6.98V-45.5A2.161,2.161,0,0,0,.347-47.66,2.16,2.16,0,0,0-1.811-45.5V6.98A2.159,2.159,0,0,0,.347,9.138" transform="translate(1.811 47.66)" fill="#004728"/>
      </g>
      <g id="Group_887" data-name="Group 887" transform="translate(226.01 172.105)">
        <path id="Path_4613" data-name="Path 4613" d="M.348,0A2.162,2.162,0,0,0-1.813,2.161l.057,26.857a2.147,2.147,0,0,0,2.13,2.159,2.175,2.175,0,0,0,2.188-2.161L2.507,2.159A2.161,2.161,0,0,0,.348,0" transform="translate(1.813)" fill="#004728"/>
      </g>
      <g id="Group_888" data-name="Group 888" transform="translate(138.439 41.953)">
        <path id="Path_4614" data-name="Path 4614" d="M.347,0A2.16,2.16,0,0,0-1.812,2.158V27.308a2.16,2.16,0,0,0,4.32,0V2.158A2.161,2.161,0,0,0,.347,0" transform="translate(1.812)" fill="#004728"/>
      </g>
      <g id="Group_889" data-name="Group 889" transform="translate(125.926 41.953)">
        <path id="Path_4615" data-name="Path 4615" d="M.347,0A2.16,2.16,0,0,0-1.812,2.158V14.3a2.159,2.159,0,1,0,4.318,0V2.158A2.159,2.159,0,0,0,.347,0" transform="translate(1.812)" fill="#004728"/>
      </g>
      <g id="Group_890" data-name="Group 890" transform="translate(150.955 41.953)">
        <path id="Path_4616" data-name="Path 4616" d="M.347,0A2.16,2.16,0,0,0-1.812,2.158V47.027a2.159,2.159,0,1,0,4.319,0V2.158A2.16,2.16,0,0,0,.347,0" transform="translate(1.812)" fill="#004728"/>
      </g>
      <g id="Group_891" data-name="Group 891" transform="translate(163.469 11.121)">
        <path id="Path_4617" data-name="Path 4617" d="M.347,0A2.159,2.159,0,0,0-1.811,2.158V98.03a2.161,2.161,0,0,0,2.158,2.161A2.162,2.162,0,0,0,2.507,98.03V2.158A2.16,2.16,0,0,0,.347,0" transform="translate(1.811)" fill="#004728"/>
      </g>
      <g id="Group_892" data-name="Group 892" transform="translate(175.983 3.491)">
        <path id="Path_4618" data-name="Path 4618" d="M.348,0A2.163,2.163,0,0,0-1.813,2.161V126.41a2.163,2.163,0,0,0,2.161,2.161,2.161,2.161,0,0,0,2.158-2.161V2.161A2.161,2.161,0,0,0,.348,0" transform="translate(1.813)" fill="#004728"/>
      </g>
      <g id="Group_893" data-name="Group 893" transform="translate(188.497)">
        <path id="Path_4619" data-name="Path 4619" d="M.347,0A2.162,2.162,0,0,0-1.812,2.161V151.324a2.159,2.159,0,0,0,4.318,0V2.161A2.161,2.161,0,0,0,.347,0" transform="translate(1.812)" fill="#004728"/>
      </g>
      <g id="Group_894" data-name="Group 894" transform="translate(201.011 12.973)">
        <path id="Path_4620" data-name="Path 4620" d="M.347,0A2.16,2.16,0,0,0-1.812,2.158V74.4a2.16,2.16,0,0,0,4.32,0V2.158A2.161,2.161,0,0,0,.347,0" transform="translate(1.812)" fill="#004728"/>
      </g>
      <g id="Group_895" data-name="Group 895" transform="translate(213.524 26.56)">
        <path id="Path_4621" data-name="Path 4621" d="M.348,0A2.162,2.162,0,0,0-1.813,2.159V58.8a2.16,2.16,0,0,0,4.32,0V2.159A2.161,2.161,0,0,0,.348,0" transform="translate(1.813)" fill="#004728"/>
      </g>
      <g id="Group_896" data-name="Group 896" transform="translate(226.041 34.505)">
        <path id="Path_4622" data-name="Path 4622" d="M.347,0A2.16,2.16,0,0,0-1.811,2.159V58.2a2.159,2.159,0,0,0,4.318,0V2.159A2.161,2.161,0,0,0,.347,0" transform="translate(1.811)" fill="#004728"/>
      </g>
      <g id="Group_897" data-name="Group 897" transform="translate(251.069 49.933)">
        <path id="Path_4623" data-name="Path 4623" d="M.347,0A2.16,2.16,0,0,0-1.812,2.158V8.194a2.159,2.159,0,0,0,4.318,0V2.158A2.16,2.16,0,0,0,.347,0" transform="translate(1.812)" fill="#004728"/>
      </g>
      <g id="Group_898" data-name="Group 898" transform="translate(263.581 49.933)">
        <path id="Path_4624" data-name="Path 4624" d="M.347,0A2.16,2.16,0,0,0-1.812,2.158V56.387a2.159,2.159,0,0,0,4.319,0V2.158A2.16,2.16,0,0,0,.347,0" transform="translate(1.812)" fill="#004728"/>
      </g>
      <g id="Group_899" data-name="Group 899" transform="translate(276.096 62.832)">
        <path id="Path_4625" data-name="Path 4625" d="M.348,0A2.163,2.163,0,0,0-1.813,2.161V44.433a2.16,2.16,0,0,0,4.32,0V2.161A2.162,2.162,0,0,0,.348,0" transform="translate(1.813)" fill="#004728"/>
      </g>
      <g id="Group_900" data-name="Group 900" transform="translate(288.613 83.063)">
        <path id="Path_4626" data-name="Path 4626" d="M.347,0A2.159,2.159,0,0,0-1.811,2.158V27.3a2.159,2.159,0,0,0,4.319,0V2.158A2.161,2.161,0,0,0,.347,0" transform="translate(1.811)" fill="#004728"/>
      </g>
      <g id="Group_901" data-name="Group 901" transform="translate(301.126 103.291)">
        <path id="Path_4627" data-name="Path 4627" d="M.347,0A2.161,2.161,0,0,0-1.811,2.161V70.721A2.161,2.161,0,0,0,.347,72.882a2.163,2.163,0,0,0,2.161-2.161V2.161A2.163,2.163,0,0,0,.347,0" transform="translate(1.811)" fill="#004728"/>
      </g>
      <g id="Group_902" data-name="Group 902" transform="translate(313.641 113.191)">
        <path id="Path_4628" data-name="Path 4628" d="M.347,0A2.161,2.161,0,0,0-1.812,2.159V56.292a2.159,2.159,0,1,0,4.318,0V2.159A2.16,2.16,0,0,0,.347,0" transform="translate(1.812)" fill="#004728"/>
      </g>
      <g id="Group_903" data-name="Group 903" transform="translate(326.153 120.616)">
        <path id="Path_4629" data-name="Path 4629" d="M.347,0A2.16,2.16,0,0,0-1.812,2.158V42.194A2.162,2.162,0,0,0,.347,44.354a2.162,2.162,0,0,0,2.159-2.161V2.158A2.16,2.16,0,0,0,.347,0" transform="translate(1.812)" fill="#004728"/>
      </g>
      <g id="Group_904" data-name="Group 904" transform="translate(338.668 122.325)">
        <path id="Path_4630" data-name="Path 4630" d="M.348,0A2.161,2.161,0,0,0-1.813,2.158v34.75a2.16,2.16,0,0,0,4.32,0V2.158A2.16,2.16,0,0,0,.348,0" transform="translate(1.813)" fill="#004728"/>
      </g>
      <g id="Group_905" data-name="Group 905" transform="translate(351.183 123.348)">
        <path id="Path_4631" data-name="Path 4631" d="M.347,0A2.159,2.159,0,0,0-1.811,2.158V20.09a2.159,2.159,0,0,0,4.318,0V2.158A2.16,2.16,0,0,0,.347,0" transform="translate(1.811)" fill="#004728"/>
      </g>
      <g id="Group_906" data-name="Group 906" transform="translate(150.955 14.677)">
        <path id="Path_4632" data-name="Path 4632" d="M.347,0A2.162,2.162,0,0,0-1.812,2.161v11.88a2.159,2.159,0,1,0,4.319,0V2.161A2.162,2.162,0,0,0,.347,0" transform="translate(1.812)" fill="#004728"/>
      </g>
      <g id="Group_907" data-name="Group 907" transform="translate(182.866 49.933)">
        <path id="Path_4633" data-name="Path 4633" d="M18.312,11.371a2.3,2.3,0,0,0-2.094-1.125C9.895,10.657,5.041,9.166.331,7.732-4.891,6.14-9.826,4.643-15.686,6.348A17.314,17.314,0,0,0-28.067,19.064a1.168,1.168,0,0,0,.359,1.1,1.315,1.315,0,0,0,1.231.291c9.609-2.826,14.619-1.11,16.755.163a6.3,6.3,0,0,1,1.7,1.418,28.371,28.371,0,0,0-4.751-.287c-.039-.014-.119,0-.119-.019-.1,0-.2.011-.31.02-.064.008-.129.014-.2.017-.512.024-1.024.062-1.525.117-.282.029-.565.062-.849.1-.551.079-1.094.176-1.627.291l-.6.128c-.026.006-.048.014-.074.02A27.236,27.236,0,0,0-35.5,34.423V-21.822c1.82-1.877,6.147-6.34,6.213-6.443a7.287,7.287,0,0,0,1.884.279,7.64,7.64,0,0,0,3.374-.795c2.689-1.322,3.908-4.041,5.088-6.67a20.7,20.7,0,0,1,2.644-4.742,1.209,1.209,0,0,0,.2-1.2,1.159,1.159,0,0,0-.912-.744c-5.637-.891-9.949-.617-12.846.8-2.543,1.249-3.348,3.077-3.2,5.706a1.092,1.092,0,0,0,.644.943,1.21,1.21,0,0,0,1.266-.149,5.457,5.457,0,0,1,4.5-.686,20.28,20.28,0,0,0-4.637,3.2,8.816,8.816,0,0,0-1.064,1.061c-.154.172-.3.335-.394.47l-.017.02L-35.5-28.1V-57.144A2.162,2.162,0,0,0-37.658-59.3a2.16,2.16,0,0,0-2.158,2.159V6.965A27.345,27.345,0,0,0-54.18-4.206a16.555,16.555,0,0,0-11.592-.833c1.275-2.448,3.019-3.375,9.931-2.669A1.257,1.257,0,0,0-54.47-9.342c-2.364-8.148-11.809-7.7-17.695-4.392a27.625,27.625,0,0,1-10.058,2.87,1.548,1.548,0,0,0-1.13,2.5C-74.814,1.779-62.092,10.75-54.16.409a22.894,22.894,0,0,1,14.344,21.2V71.4A27.266,27.266,0,0,0-55.282,59.91c-2.886-1.384-11.927-1.621-15.333-1.087,2.634-1.9,7.111-4.271,12.423-3.482a1.87,1.87,0,0,0,1.838-.809,1.788,1.788,0,0,0,.081-1.916,15.616,15.616,0,0,0-15.632-7.324c-6.557.868-14.232,5.319-22.809,13.227a2.394,2.394,0,0,0-.727,2.318,2.434,2.434,0,0,0,1.7,1.8c3.488,1.049,6.756,3.1,9.911,5.09,10.394,7.809,22.479,8.024,28.062-3.47A22.911,22.911,0,0,1-39.816,86.048v.3A2.16,2.16,0,0,0-37.658,88.5,2.162,2.162,0,0,0-35.5,86.343V49.072a22.834,22.834,0,0,1,9.448-18.478,14.909,14.909,0,0,0,13.134,7.255,19,19,0,0,0,5.338-.784C1,34.568,10.174,26.334,18.255,13.878a2.385,2.385,0,0,0,.057-2.507" transform="translate(95.504 59.303)" fill="#47b291"/>
      </g>
      <g id="Group_908" data-name="Group 908" transform="translate(0 159.594)">
        <path id="Path_4634" data-name="Path 4634" d="M0,5.646.315-5.16H.787C2.255,1.974,5.559,8.007,12.59,8.007c4.668,0,7.606-3.043,7.606-7.081C20.2-3.9,16-5.527,11.54-7.363l-2.2-.891C3.672-10.615.262-13.447.262-18.641c0-6.346,5.718-10.8,12.432-10.8a26.6,26.6,0,0,1,10.124,1.993l-.21,9.441h-.473c-1.626-6.766-4.249-10.7-9.757-10.7-4.144,0-6.924,2.675-6.924,6.295,0,3.671,2.256,5.455,7.817,7.6l2.36.944c6.714,2.623,9.7,5.613,9.7,10.912,0,6.662-5.455,11.7-13.114,11.7A26.2,26.2,0,0,1,0,5.646" transform="translate(0 29.445)" fill="#004728"/>
      </g>
      <g id="Group_909" data-name="Group 909" transform="translate(29.883 171.709)">
        <path id="Path_4635" data-name="Path 4635" d="M3.654,3.654v.472A8.391,8.391,0,0,1-2.01,6.7a3.858,3.858,0,0,1-4.145-3.41,8.475,8.475,0,0,1-6.5,3.41c-4.144,0-6.4-3.147-6.4-6.609,0-3.147,1.993-4.668,6.608-6.19l6.19-1.993v-4.512c0-4.039-.524-5.979-2.674-5.979-1.836,0-2.2,1.73-2.78,4.144-.524,1.94-1.365,2.885-3.147,2.885a4.13,4.13,0,0,1-3.514-1.889c.891-2.885,4.144-5.613,9.6-5.613,6.241,0,9.126,2.728,9.126,7.03V1.295c0,1.573.472,2.727,1.941,2.727a2.479,2.479,0,0,0,1.363-.367M-6.26,2.711V-7.571L-9.879-6.312c-2.36.839-2.938,2.1-2.938,4.459,0,2.936,1.365,5.664,4.092,5.664a3.053,3.053,0,0,0,2.465-1.1" transform="translate(19.058 19.059)" fill="#004728"/>
      </g>
      <g id="Group_910" data-name="Group 910" transform="translate(54.458 171.814)">
        <path id="Path_4636" data-name="Path 4636" d="M3.857,3.123c0,2.623.421,4.145,2.938,4.355v.367l-7.92,1.521A7.637,7.637,0,0,1-2.648,5.431a8.706,8.706,0,0,1-7.658,4.144c-4.773,0-6.819-3.672-6.819-7.763v-12.9c0-1.783-.629-2.938-2.99-3.043V-14.5l9.337-1.784h.367V1.55c0,3.2,1.207,5.192,3.882,5.192A5.136,5.136,0,0,0-2.7,5.012a21.268,21.268,0,0,1-.157-2.728V-11.092c0-1.836-.577-2.938-3.043-3.043V-14.5l9.39-1.784h.367Z" transform="translate(20.115 16.286)" fill="#004728"/>
      </g>
      <g id="Group_911" data-name="Group 911" transform="translate(85.127 158.755)">
        <path id="Path_4637" data-name="Path 4637" d="M3.671,5.232c0,2.308.315,3.986,2.885,4.3V9.9l-7.869,1.521A7.7,7.7,0,0,1-2.833,7.8a8.479,8.479,0,0,1-7.134,3.777c-5.3,0-9.18-4.825-9.18-12.221,0-7.974,4.773-13.639,13.009-13.639a12.43,12.43,0,0,1,3.095.368V-21.73c0-1.887-.629-3.041-3.043-3.094v-.367l9.442-2.1h.315ZM-2.938,7.278c-.052-.577-.1-1.206-.1-1.889v-17a3.565,3.565,0,0,0-3.3-2.15c-3.41,0-5.613,4.249-5.613,12.012,0,7.134,2.308,10.6,5.561,10.6A4.058,4.058,0,0,0-2.938,7.278" transform="translate(19.147 27.288)" fill="#004728"/>
      </g>
      <g id="Group_912" data-name="Group 912" transform="translate(114.859 163.213)">
        <path id="Path_4638" data-name="Path 4638" d="M0,5.443V5.129l.578-.1c1.678-.262,2.307-.944,2.307-2.885V-14.175c0-1.888-.577-3.095-2.885-3.095v-.367l9.285-2.151H9.6V2.139c0,1.941.629,2.623,2.308,2.885l.577.1v.315ZM2.675-24.979a3.448,3.448,0,0,1,3.462-3.41,3.459,3.459,0,0,1,3.514,3.41,3.451,3.451,0,0,1-3.514,3.356,3.439,3.439,0,0,1-3.462-3.356" transform="translate(0 28.389)" fill="#004728"/>
      </g>
      <g id="Group_913" data-name="Group 913" transform="translate(0 211.246)">
        <path id="Path_4639" data-name="Path 4639" d="M3.047,3.275H17.787v.419l-.735.052c-1.626.21-2.674.891-2.674,2.99V17.385A25.057,25.057,0,0,1,1.945,21.109c-10.281,0-17.834-7.606-17.834-18.988,0-11.436,8.078-19.2,18.411-19.2a30.051,30.051,0,0,1,11.173,2.413v9.336h-.472C11.178-13.511,7.19-16.4,2.627-16.4-3.72-16.4-7.916-9.367-7.916.966c0,10.91,3.567,19.461,10.229,19.461A8.058,8.058,0,0,0,7.19,18.907V6.737c0-2.151-.891-2.623-3.41-2.99l-.734-.052Z" transform="translate(15.889 17.078)" fill="#40c091"/>
      </g>
      <g id="Group_914" data-name="Group 914" transform="translate(36.501 223.467)">
        <path id="Path_4640" data-name="Path 4640" d="M3.216.363C2.8,1.99,1.589,4.14-.247,4.14A4.6,4.6,0,0,1-2.607,3.3a4,4,0,0,0-2.2-.891A2.477,2.477,0,0,0-7.066,4.192V20.034c0,1.941,1,2.675,3.043,2.885l1.049.1v.315h-13.8v-.315l.577-.1c1.784-.315,2.413-.944,2.413-2.885V3.72c0-1.835-.682-3.043-2.99-3.095V.258l9.337-2.151h.21V3.563c.944-2.413,2.99-5.4,6.137-5.4a5.565,5.565,0,0,1,4.3,2.2" transform="translate(16.77 1.893)" fill="#40c091"/>
      </g>
      <g id="Group_915" data-name="Group 915" transform="translate(59.157 223.362)">
        <path id="Path_4641" data-name="Path 4641" d="M3.325,2.735c-1.836,6.294-5.351,9.021-9.809,9.021-6.19,0-10.858-5.088-10.858-12.432,0-7.815,4.773-13.586,10.963-13.586,6.085,0,9.18,4.512,9.18,9.39a7.762,7.762,0,0,1-.052.84H-11.52v.315c0,6.976,3.462,10.334,7.869,10.334,2.884,0,4.93-1.155,6.662-3.988ZM-11.52-4.61h8.656c-.157-5.4-1.417-9.074-3.882-9.074-2.571,0-4.564,3.147-4.774,9.074" transform="translate(17.342 14.262)" fill="#40c091"/>
      </g>
      <g id="Group_916" data-name="Group 916" transform="translate(84.289 223.362)">
        <path id="Path_4642" data-name="Path 4642" d="M3.325,2.735c-1.835,6.294-5.35,9.021-9.809,9.021-6.19,0-10.858-5.088-10.858-12.432,0-7.815,4.773-13.586,10.963-13.586,6.085,0,9.18,4.512,9.18,9.39a7.762,7.762,0,0,1-.052.84H-11.519v.315c0,6.976,3.462,10.334,7.868,10.334,2.885,0,4.931-1.155,6.662-3.988ZM-11.519-4.61h8.654c-.157-5.4-1.416-9.074-3.882-9.074-2.571,0-4.563,3.147-4.773,9.074" transform="translate(17.342 14.262)" fill="#40c091"/>
      </g>
      <g id="Group_917" data-name="Group 917" transform="translate(108.519 223.362)">
        <path id="Path_4643" data-name="Path 4643" d="M4.431,4.026V4.34H-8V4.026l.683-.1c1.521-.262,2.1-.944,2.1-2.885V-12.812c0-3.252-1.206-5.141-3.986-5.141a5.666,5.666,0,0,0-4.2,1.941V1.036c0,1.941.629,2.623,2.255,2.885l.578.1V4.34H-23V4.026l.577-.1c1.732-.262,2.308-.944,2.308-2.885V-15.226c0-1.835-.628-3.043-2.989-3.095v-.419l9.336-2.151h.21v4.512A9.786,9.786,0,0,1-5.484-21c5.036,0,6.976,3.621,6.976,7.292V1.036c0,1.941.577,2.623,2.308,2.885Z" transform="translate(23.107 20.996)" fill="#40c091"/>
      </g>
      <g id="Group_918" data-name="Group 918" transform="translate(149.267 211.981)">
        <path id="Path_4644" data-name="Path 4644" d="M0,5.908V5.54l.839-.157C2.413,5.069,3.724,4.6,3.724,2.5V-27.4c0-2.1-1.311-2.675-2.885-2.938L0-30.443v-.367H14.636v.367l-.788.1c-1.573.262-2.938.839-2.938,2.938V2.5c0,2.1,1.365,2.571,2.938,2.885l.788.157v.367Z" transform="translate(0 30.81)" fill="#40c091"/>
      </g>
      <g id="Group_919" data-name="Group 919" transform="translate(168.315 223.362)">
        <path id="Path_4645" data-name="Path 4645" d="M4.431,4.026V4.34H-8V4.026l.682-.1c1.521-.262,2.1-.944,2.1-2.885V-12.812c0-3.252-1.206-5.141-3.986-5.141a5.666,5.666,0,0,0-4.2,1.941V1.036c0,1.941.629,2.623,2.256,2.885l.577.1V4.34H-23V4.026l.577-.1c1.732-.262,2.308-.944,2.308-2.885V-15.226c0-1.835-.629-3.043-2.99-3.095v-.419l9.337-2.151h.21v4.512A9.786,9.786,0,0,1-5.483-21c5.036,0,6.976,3.621,6.976,7.292V1.036c0,1.941.578,2.623,2.308,2.885Z" transform="translate(23.108 20.996)" fill="#40c091"/>
      </g>
      <g id="Group_920" data-name="Group 920" transform="translate(199.997 214.866)">
        <path id="Path_4646" data-name="Path 4646" d="M0,5.443V5.129l.577-.1c1.679-.262,2.308-.944,2.308-2.885V-14.175c0-1.888-.577-3.095-2.885-3.095v-.367l9.285-2.151H9.6V2.139c0,1.941.629,2.623,2.308,2.885l.577.1v.315ZM2.675-24.979a3.447,3.447,0,0,1,3.462-3.41,3.459,3.459,0,0,1,3.514,3.41,3.451,3.451,0,0,1-3.514,3.356,3.438,3.438,0,0,1-3.462-3.356" transform="translate(0 28.389)" fill="#40c091"/>
      </g>
      <g id="Group_921" data-name="Group 921" transform="translate(215.133 217.75)">
        <path id="Path_4647" data-name="Path 4647" d="M.456,4.085V-13.488H-2.377v-.419a11.083,11.083,0,0,0,7.868-7.4H7.17v6.295h5.508l-.473,1.521H7.17V2.826c0,2.885.944,4.458,3.619,4.458A4.735,4.735,0,0,0,13.2,6.655v.419A10.176,10.176,0,0,1,6.279,10.17C2.817,10.17.456,8.02.456,4.085" transform="translate(2.377 21.303)" fill="#40c091"/>
      </g>
      <g id="Group_922" data-name="Group 922" transform="translate(233.992 214.866)">
        <path id="Path_4648" data-name="Path 4648" d="M0,5.443V5.129l.577-.1c1.679-.262,2.308-.944,2.308-2.885V-14.175c0-1.888-.577-3.095-2.885-3.095v-.367l9.285-2.151H9.6V2.139c0,1.941.629,2.623,2.308,2.885l.577.1v.315ZM2.675-24.979a3.447,3.447,0,0,1,3.462-3.41,3.459,3.459,0,0,1,3.514,3.41,3.451,3.451,0,0,1-3.514,3.356,3.438,3.438,0,0,1-3.462-3.356" transform="translate(0 28.389)" fill="#40c091"/>
      </g>
      <g id="Group_923" data-name="Group 923" transform="translate(249.903 223.362)">
        <path id="Path_4649" data-name="Path 4649" d="M3.654,3.654v.472A8.391,8.391,0,0,1-2.011,6.7a3.858,3.858,0,0,1-4.144-3.41,8.475,8.475,0,0,1-6.5,3.41c-4.144,0-6.4-3.147-6.4-6.609,0-3.147,1.994-4.668,6.609-6.19l6.19-1.993v-4.512c0-4.039-.524-5.979-2.675-5.979-1.835,0-2.2,1.73-2.78,4.144-.524,1.94-1.363,2.885-3.146,2.885a4.134,4.134,0,0,1-3.516-1.889c.893-2.885,4.145-5.613,9.6-5.613,6.242,0,9.128,2.728,9.128,7.03V1.295c0,1.573.472,2.727,1.941,2.727a2.479,2.479,0,0,0,1.363-.367M-6.26,2.711V-7.571L-9.879-6.312c-2.361.839-2.938,2.1-2.938,4.459,0,2.936,1.365,5.664,4.091,5.664a3.054,3.054,0,0,0,2.466-1.1" transform="translate(19.059 19.059)" fill="#40c091"/>
      </g>
      <g id="Group_924" data-name="Group 924" transform="translate(274.789 217.75)">
        <path id="Path_4650" data-name="Path 4650" d="M.456,4.085V-13.488H-2.377v-.419a11.083,11.083,0,0,0,7.868-7.4H7.17v6.295h5.508l-.473,1.521H7.17V2.826c0,2.885.944,4.458,3.619,4.458A4.735,4.735,0,0,0,13.2,6.655v.419A10.176,10.176,0,0,1,6.279,10.17C2.817,10.17.456,8.02.456,4.085" transform="translate(2.377 21.303)" fill="#40c091"/>
      </g>
      <g id="Group_925" data-name="Group 925" transform="translate(293.648 214.866)">
        <path id="Path_4651" data-name="Path 4651" d="M0,5.443V5.129l.577-.1c1.679-.262,2.308-.944,2.308-2.885V-14.175c0-1.888-.577-3.095-2.885-3.095v-.367l9.285-2.151H9.6V2.139c0,1.941.629,2.623,2.308,2.885l.577.1v.315ZM2.675-24.979a3.447,3.447,0,0,1,3.462-3.41,3.459,3.459,0,0,1,3.514,3.41,3.451,3.451,0,0,1-3.514,3.356,3.438,3.438,0,0,1-3.462-3.356" transform="translate(0 28.389)" fill="#40c091"/>
      </g>
      <g id="Group_926" data-name="Group 926" transform="translate(308.333 224.045)">
        <path id="Path_4652" data-name="Path 4652" d="M2.793,0H9.875V.315C7.725,1,6.413,3.619,5.049,7.291L-1.508,24.758H-3.763L-10.425,7.5C-12.156,3.043-13.048.891-14.569.315V0H-2.294V.315l-.683.157c-1.94.472-2.674,1.73-1,6.137l4.3,11.277L4.42,7.134C5.941,2.99,6.1,1.1,3.318.472L2.793.315Z" transform="translate(14.569)" fill="#40c091"/>
      </g>
      <g id="Group_927" data-name="Group 927" transform="translate(334.209 223.362)">
        <path id="Path_4653" data-name="Path 4653" d="M3.325,2.735c-1.835,6.294-5.35,9.021-9.808,9.021-6.19,0-10.859-5.088-10.859-12.432,0-7.815,4.774-13.586,10.964-13.586,6.084,0,9.179,4.512,9.179,9.39a7.762,7.762,0,0,1-.052.84H-11.519v.315c0,6.976,3.462,10.334,7.868,10.334,2.885,0,4.931-1.155,6.662-3.988ZM-11.519-4.61h8.656c-.157-5.4-1.417-9.074-3.883-9.074-2.569,0-4.563,3.147-4.773,9.074" transform="translate(17.342 14.262)" fill="#40c091"/>
      </g>
    </g>
  </g>
</svg>
