<svg xmlns="http://www.w3.org/2000/svg" width="82.156" height="72.862" viewBox="0 0 82.156 72.862">
  <path id="Path_3487" data-name="Path 3487" d="M2268.039-3029.941l-.019-9.275a8.029,8.029,0,0,0-1.2-.494,6.019,6.019,0,0,1-1.684,2.159v4.3a.763.763,0,0,1-.763.763.763.763,0,0,1-.763-.763v-3.5c-2.024.631-4.478-.055-6.71-1.733a14.866,14.866,0,0,0-3.5-1.8.863.863,0,0,1-.6-.635.847.847,0,0,1,.258-.819c3.032-2.8,5.746-4.37,8.063-4.677a5.521,5.521,0,0,1,5.526,2.589.633.633,0,0,1-.029.678.662.662,0,0,1-.65.285,6.082,6.082,0,0,0-4.392,1.231,14.409,14.409,0,0,1,5.421.385,9.639,9.639,0,0,1,5.468,4.062v-17.6a8.059,8.059,0,0,0-2.9-6.19v17.135a.764.764,0,0,1-.763.763.764.764,0,0,1-.763-.763v-18.146q-.316-.161-.647-.295a3.894,3.894,0,0,1-2.251,1.537v11.657a.763.763,0,0,1-.763.763.763.763,0,0,1-.763-.763v-11.636a7.657,7.657,0,0,1-2.9-1.275v12.911a.763.763,0,0,1-.763.763.763.763,0,0,1-.763-.763v-14.1a21.245,21.245,0,0,1-2.12-2.189.547.547,0,0,1,.4-.885,9.776,9.776,0,0,0,3.556-1.014c2.081-1.171,5.42-1.328,6.256,1.552a.445.445,0,0,1-.485.577c-2.443-.249-3.06.078-3.511.944a5.851,5.851,0,0,1,4.1.294,9.667,9.667,0,0,1,5.078,3.949v-22.664a.764.764,0,0,1,.763-.763.764.764,0,0,1,.763.763v10.268l.968-.944.006-.007c.035-.048.085-.105.139-.167a3.226,3.226,0,0,1,.376-.375,7.184,7.184,0,0,1,1.639-1.131,1.928,1.928,0,0,0-1.589.243.428.428,0,0,1-.448.052.385.385,0,0,1-.227-.333,1.87,1.87,0,0,1,1.132-2.018,7.866,7.866,0,0,1,4.541-.283.41.41,0,0,1,.322.263.428.428,0,0,1-.071.425,7.308,7.308,0,0,0-.935,1.677,5.027,5.027,0,0,1-1.429,2.134v11.763a.764.764,0,0,1-.763.763.764.764,0,0,1-.763-.763v-11.258h-.035a2.577,2.577,0,0,1-.666-.1c-.023.037-1.553,1.615-2.2,2.277v19.883a9.632,9.632,0,0,1,6.16-4.239l.026-.007.211-.045c.189-.041.381-.076.575-.1.1-.015.2-.027.3-.038.177-.019.358-.032.539-.041a.567.567,0,0,0,.069-.006l.11-.007c0,.007.028,0,.042.007a9.942,9.942,0,0,1,1.679.1,2.225,2.225,0,0,0-.6-.5c-.755-.45-2.526-1.057-5.923-.059a.464.464,0,0,1-.436-.1.41.41,0,0,1-.127-.39,6.123,6.123,0,0,1,4.377-4.5c2.072-.6,3.816-.073,5.662.49a14.781,14.781,0,0,0,5.617.888.814.814,0,0,1,.74.4.843.843,0,0,1-.021.886q-.641.987-1.305,1.873v17.22a.765.765,0,0,1-.764.765.765.765,0,0,1-.763-.765v-15.352a19.655,19.655,0,0,1-2.9,2.685v14.489a.763.763,0,0,1-.763.763.764.764,0,0,1-.764-.763v-13.5a9.45,9.45,0,0,1-1.875.788,6.937,6.937,0,0,1-1.022.218v18.066a.763.763,0,0,1-.762.763.764.764,0,0,1-.764-.763v-18.043a5.3,5.3,0,0,1-2.9-1.233v18.413a.763.763,0,0,1-.763.763.763.763,0,0,1-.763-.763v-19.362a8.059,8.059,0,0,0-2.9,6.187v13.176a.764.764,0,0,1-.763.763.764.764,0,0,1-.763-.763v-.105a8.068,8.068,0,0,0-2.9-6.2l.017,8.264a.77.77,0,0,1-.774.764A.759.759,0,0,1,2268.039-3029.941Zm26.534-9.584v-24.237a.764.764,0,0,1,.763-.763.765.765,0,0,1,.764.763v24.237a.765.765,0,0,1-.764.764A.765.765,0,0,1,2294.573-3039.525Zm4.425-1.6v-19.136a.765.765,0,0,1,.763-.764.764.764,0,0,1,.764.764v19.136a.763.763,0,0,1-.764.763A.763.763,0,0,1,2299-3041.126Zm4.423-2.36v-14.152a.763.763,0,0,1,.763-.763.763.763,0,0,1,.763.763v14.152a.764.764,0,0,1-.763.764A.764.764,0,0,1,2303.42-3043.486Zm4.425-1.263v-12.284a.764.764,0,0,1,.764-.763.763.763,0,0,1,.763.763v12.284a.763.763,0,0,1-.763.763A.764.764,0,0,1,2307.845-3044.75Zm-53.087-2.8v-52.73a.764.764,0,0,1,.762-.764.764.764,0,0,1,.763.764v52.73a.763.763,0,0,1-.763.763A.763.763,0,0,1,2254.758-3047.546Zm57.51-2.786v-6.34a.764.764,0,0,1,.763-.763.764.764,0,0,1,.763.763v6.34a.763.763,0,0,1-.763.762A.763.763,0,0,1,2312.268-3050.332Zm-61.935-4.786v-43.924a.765.765,0,0,1,.765-.763.764.764,0,0,1,.763.763v43.924a.765.765,0,0,1-.763.764A.765.765,0,0,1,2250.333-3055.118Zm39.816-6.907v-8.887a.764.764,0,0,1,.763-.764.764.764,0,0,1,.764.764v8.887a.763.763,0,0,1-.764.763A.763.763,0,0,1,2290.149-3062.025Zm-44.24-.429v-33.891a.763.763,0,0,1,.763-.763.764.764,0,0,1,.763.763v33.891a.764.764,0,0,1-.763.764A.764.764,0,0,1,2245.91-3062.454Zm39.815-.666v-14.944a.765.765,0,0,1,.764-.764.764.764,0,0,1,.763.764v14.944a.764.764,0,0,1-.763.763A.764.764,0,0,1,2285.725-3063.12Zm-4.423-.334v-19.17a.764.764,0,0,1,.763-.764.764.764,0,0,1,.763.764v19.17a.763.763,0,0,1-.763.762A.763.763,0,0,1,2281.3-3063.454Zm-13.271-4.812v-19.812a.763.763,0,0,1,.763-.763.763.763,0,0,1,.763.763v19.812a.764.764,0,0,1-.763.763A.764.764,0,0,1,2268.03-3068.267Zm-26.544-1.318v-15.861a.764.764,0,0,1,.764-.763.764.764,0,0,1,.763.763v15.861a.764.764,0,0,1-.763.764A.764.764,0,0,1,2241.486-3069.585Zm17.7-.567v-25.538a.764.764,0,0,1,.763-.763.764.764,0,0,1,.763.763v25.538a.764.764,0,0,1-.763.763A.764.764,0,0,1,2259.182-3070.152Zm4.424-.712v-20.023a.764.764,0,0,1,.763-.764.764.764,0,0,1,.763.764v20.023a.764.764,0,0,1-.763.763A.763.763,0,0,1,2263.605-3070.864Zm-26.544-5.692v-8.89a.764.764,0,0,1,.763-.763.764.764,0,0,1,.764.763v8.89a.763.763,0,0,1-.764.763A.764.764,0,0,1,2237.062-3076.556Zm39.816-3.936v-2.133a.764.764,0,0,1,.763-.764.764.764,0,0,1,.763.764v2.133a.764.764,0,0,1-.763.763A.764.764,0,0,1,2276.878-3080.491Zm-44.239-.662v-4.293a.763.763,0,0,1,.763-.763.763.763,0,0,1,.762.763v4.293a.763.763,0,0,1-.762.763A.763.763,0,0,1,2232.639-3081.153Zm8.847-9.734v-4.2a.765.765,0,0,1,.764-.764.765.765,0,0,1,.763.764v4.2a.764.764,0,0,1-.763.762A.764.764,0,0,1,2241.486-3090.887Z" transform="translate(-2232.139 3101.54)" fill="#fff" stroke="rgba(0,0,0,0)" stroke-width="1"/>
</svg>
