<svg xmlns="http://www.w3.org/2000/svg" viewBox="0 0 28.94 20.003"><path data-name="Path 104" d="M25.125 2.398a10.564 10.564 0 0 1-2.548.7c.411-.066 1.016-.781 1.257-1.071a4.465 4.465 0 0 0 .849-1.488c.022-.042.039-.1-.005-.128a.149.149 0 0 0-.135.011 13.33 13.33 0 0 1-3.027 1.115.208.208 0 0 1-.209-.053 2.364 2.364 0 0 0-.264-.26 5.4 5.4 0 0 0-1.466-.865 5.28 5.28 0 0 0-2.249-.35 5.534 5.534 0 0 0-2.133.58 5.468 5.468 0 0 0-1.722 1.353 5.014 5.014 0 0 0-1.028 1.982 5.119 5.119 0 0 0-.052 2.092c.017.117.006.133-.1.117-4.156-.6-7.6-2.028-10.4-5.1-.122-.134-.189-.134-.287.01a4.936 4.936 0 0 0 .9 6c.2.186.413.372.639.542a5.466 5.466 0 0 1-2.006-.542c-.122-.074-.183-.031-.193.1a2.932 2.932 0 0 0 .033.574 5.168 5.168 0 0 0 3.288 4.093 3.168 3.168 0 0 0 .667.2 6.162 6.162 0 0 1-1.968.059c-.144-.027-.2.043-.144.175a5.494 5.494 0 0 0 4.133 3.334c.187.031.375.031.563.074-.011.016-.022.016-.033.032-.464.681-2.074 1.188-2.824 1.441a10.5 10.5 0 0 1-4.289.529c-.231-.033-.279-.03-.342 0s-.008.09.066.148c.292.186.59.352.893.51a14.5 14.5 0 0 0 2.864 1.107c5.152 1.37 10.956.363 14.823-3.338 3.038-2.906 4.1-6.914 4.1-10.927 0-.157.193-.244.307-.327a9.785 9.785 0 0 0 2.008-2.02.571.571 0 0 0 .124-.387v-.021c.004-.065.012-.046-.09-.001Z" fill="#fff"/><path data-name="Path 105" d="M19.171 19.916c-.033 0-.417 0 0 0Z" fill="#fff" fill-rule="evenodd"/><path data-name="Path 106" d="M20.02 19.937c0-.041.447 0 0 0 0-.021.055 0 0 0Z" fill="#fff" fill-rule="evenodd"/><path data-name="Path 107" d="M28.94.03a.094.094 0 0 1-.1 0Z" fill="#fff" fill-rule="evenodd"/></svg>